<svg width="60" height="60" viewBox="0 0 60 60" fill="none" xmlns="http://www.w3.org/2000/svg">
<rect x="14.4744" y="15.54" width="34.5242" height="27.8078" fill="white" stroke="#0E0F11" stroke-width="4" stroke-linejoin="round"/>
<path fill-rule="evenodd" clip-rule="evenodd" d="M31.7365 35.9326H14.4744V43.348C14.4744 47.4434 22.2029 50.7634 31.7365 50.7634C41.2701 50.7634 48.9986 47.4434 48.9986 43.348V35.9326H31.7365Z" fill="white"/>
<path d="M14.4744 35.9326V33.9326H12.4744V35.9326H14.4744ZM48.9986 35.9326H50.9986V33.9326H48.9986V35.9326ZM14.4744 37.9326H31.7365V33.9326H14.4744V37.9326ZM16.4744 43.348V35.9326H12.4744V43.348H16.4744ZM31.7365 48.7634C27.1746 48.7634 23.1396 47.9652 20.3197 46.7539C18.9063 46.1467 17.89 45.4752 17.256 44.8312C16.6306 44.1961 16.4744 43.6972 16.4744 43.348H12.4744C12.4744 45.0465 13.2842 46.4985 14.4058 47.6376C15.5188 48.7681 17.0305 49.6944 18.7409 50.4291C22.1688 51.9017 26.7648 52.7634 31.7365 52.7634V48.7634ZM46.9986 43.348C46.9986 43.6972 46.8423 44.1961 46.2169 44.8312C45.5829 45.4752 44.5667 46.1467 43.1533 46.7539C40.3334 47.9652 36.2984 48.7634 31.7365 48.7634V52.7634C36.7082 52.7634 41.3042 51.9017 44.7321 50.4291C46.4425 49.6944 47.9542 48.7681 49.0672 47.6376C50.1888 46.4985 50.9986 45.0465 50.9986 43.348H46.9986ZM46.9986 35.9326V43.348H50.9986V35.9326H46.9986ZM31.7365 37.9326H48.9986V33.9326H31.7365V37.9326Z" fill="#0E0F11"/>
<path fill-rule="evenodd" clip-rule="evenodd" d="M31.7365 26.6638H14.4744V34.0792C14.4744 38.1747 22.2029 41.4946 31.7365 41.4946C41.2701 41.4946 48.9986 38.1747 48.9986 34.0792V26.6638H31.7365Z" fill="white"/>
<path d="M14.4744 26.6638V24.6638H12.4744V26.6638H14.4744ZM48.9986 26.6638H50.9986V24.6638H48.9986V26.6638ZM14.4744 28.6638H31.7365V24.6638H14.4744V28.6638ZM16.4744 34.0792V26.6638H12.4744V34.0792H16.4744ZM31.7365 39.4946C27.1746 39.4946 23.1396 38.6964 20.3197 37.4851C18.9063 36.8779 17.89 36.2064 17.256 35.5624C16.6306 34.9273 16.4744 34.4284 16.4744 34.0792H12.4744C12.4744 35.7777 13.2842 37.2297 14.4058 38.3688C15.5188 39.4993 17.0305 40.4256 18.7409 41.1603C22.1688 42.6329 26.7648 43.4946 31.7365 43.4946V39.4946ZM46.9986 34.0792C46.9986 34.4284 46.8423 34.9273 46.2169 35.5624C45.5829 36.2064 44.5667 36.8779 43.1533 37.4851C40.3334 38.6964 36.2984 39.4946 31.7365 39.4946V43.4946C36.7082 43.4946 41.3042 42.6329 44.7321 41.1603C46.4425 40.4256 47.9542 39.4993 49.0672 38.3688C50.1888 37.2297 50.9986 35.7777 50.9986 34.0792H46.9986ZM46.9986 26.6638V34.0792H50.9986V26.6638H46.9986ZM31.7365 28.6638H48.9986V24.6638H31.7365V28.6638Z" fill="#0E0F11"/>
<path fill-rule="evenodd" clip-rule="evenodd" d="M31.7365 17.3945H14.4744V24.8099C14.4744 28.9054 22.2029 32.2254 31.7365 32.2254C41.2701 32.2254 48.9986 28.9054 48.9986 24.8099V17.3945H31.7365Z" fill="white"/>
<path d="M14.4744 17.3945V15.3945H12.4744V17.3945H14.4744ZM48.9986 17.3945H50.9986V15.3945H48.9986V17.3945ZM14.4744 19.3945H31.7365V15.3945H14.4744V19.3945ZM16.4744 24.8099V17.3945H12.4744V24.8099H16.4744ZM31.7365 30.2254C27.1746 30.2254 23.1396 29.4271 20.3197 28.2158C18.9063 27.6086 17.89 26.9371 17.256 26.2932C16.6306 25.658 16.4744 25.1591 16.4744 24.8099H12.4744C12.4744 26.5085 13.2842 27.9604 14.4058 29.0996C15.5188 30.23 17.0305 31.1563 18.7409 31.8911C22.1688 33.3636 26.7648 34.2254 31.7365 34.2254V30.2254ZM46.9986 24.8099C46.9986 25.1591 46.8423 25.658 46.2169 26.2932C45.5829 26.9371 44.5667 27.6086 43.1533 28.2158C40.3334 29.4271 36.2984 30.2254 31.7365 30.2254V34.2254C36.7082 34.2254 41.3042 33.3636 44.7321 31.8911C46.4425 31.1563 47.9542 30.23 49.0672 29.0996C50.1888 27.9604 50.9986 26.5085 50.9986 24.8099H46.9986ZM46.9986 17.3945V24.8099H50.9986V17.3945H46.9986ZM31.7365 19.3945H48.9986V15.3945H31.7365V19.3945Z" fill="#0E0F11"/>
<ellipse cx="31.7365" cy="15.5404" rx="17.2621" ry="7.41541" fill="white" stroke="#0E0F11" stroke-width="4"/>
<path d="M36.2414 18.3281L35.4774 19.6465L25.2294 18.3978L25.2261 17.5125C26.0154 17.3138 26.6467 17.0782 27.1201 16.8058C27.5935 16.5334 27.9613 16.1709 28.2236 15.7183L28.235 15.6986L26.0448 15.4318L26.7005 14.3003L28.3281 14.4986C28.3321 14.0215 28.4424 13.5961 28.6591 13.2222C28.9176 12.7761 29.3428 12.4136 29.9348 12.1346C30.5401 11.8572 31.2606 11.6782 32.0962 11.5974C32.9318 11.5166 33.8252 11.5342 34.7763 11.6501C36.3302 11.8394 37.4027 12.1913 37.9938 12.7058C38.5849 13.2202 38.7152 13.812 38.3849 14.481L35.2301 14.0966C35.3554 13.831 35.3278 13.6064 35.1473 13.4229C34.9706 13.2328 34.6076 13.1043 34.0584 13.0374C33.5226 12.9721 33.0598 13.0035 32.67 13.1315C32.2841 13.2531 31.9999 13.4712 31.8174 13.7861C31.73 13.937 31.6741 14.0952 31.6499 14.2608C31.639 14.428 31.6369 14.6419 31.6436 14.9026L35.2807 15.3458L34.6249 16.4773L31.4902 16.0953L31.4731 16.1248C31.3249 16.3806 31.0638 16.6332 30.6898 16.8826C30.3158 17.132 29.8421 17.3306 29.2688 17.4784L36.2414 18.3281Z" fill="#3B4757"/>
<path d="M16.25 30C8.65312 30 2.5 36.1531 2.5 43.75C2.5 51.2645 8.6101 57.5 16.25 57.5C23.8899 57.5 30 51.2645 30 43.75C30 36.1531 23.8469 30 16.25 30Z" fill="white"/>
<path d="M16.2615 33.75C10.7365 33.75 6.26147 38.225 6.26147 43.75C6.26147 49.2151 10.7052 53.75 16.2615 53.75C21.8178 53.75 26.2615 49.2151 26.2615 43.75C26.2615 38.225 21.7865 33.75 16.2615 33.75Z" fill="#0E0F11"/>
<path fill-rule="evenodd" clip-rule="evenodd" d="M20.463 41.9821C21.1952 41.2498 21.1952 40.0627 20.463 39.3304C19.7307 38.5982 18.5435 38.5982 17.8113 39.3304L16.0434 41.0983L14.2758 39.3307C13.5436 38.5985 12.3564 38.5985 11.6242 39.3307C10.8919 40.0629 10.8919 41.2501 11.6242 41.9824L13.3918 43.75L11.6241 45.5176C10.8919 46.2498 10.8919 47.437 11.6241 48.1693C12.3564 48.9015 13.5435 48.9015 14.2758 48.1693L16.0434 46.4016L17.8113 48.1695C18.5436 48.9018 19.7308 48.9018 20.463 48.1695C21.1952 47.4373 21.1952 46.2501 20.463 45.5179L18.6951 43.75L20.463 41.9821Z" fill="white"/>
</svg>
