<svg width="60" height="60" viewBox="0 0 60 60" fill="none" xmlns="http://www.w3.org/2000/svg">
<path fill-rule="evenodd" clip-rule="evenodd" d="M38.38 10H21.62C14.34 10 10 14.34 10 21.62V33.5392C11.531 32.8708 13.222 32.5 15 32.5C18.3004 32.5 21.3011 33.7775 23.5348 35.8652C23.5896 35.7624 23.6413 35.659 23.69 35.555C24.13 34.615 24.35 33.455 24.35 32.075V32.015H21.08V28.565H23.51C23.13 27.205 22.94 25.955 22.94 24.815C22.94 23.455 23.24 22.275 23.84 21.275C24.46 20.275 25.32 19.515 26.42 18.995C27.52 18.475 28.78 18.215 30.2 18.215C32.52 18.215 34.3 18.845 35.54 20.105C36.78 21.365 37.44 23.005 37.52 25.025H32.81C32.77 24.225 32.55 23.595 32.15 23.135C31.75 22.655 31.14 22.415 30.32 22.415C29.52 22.415 28.9 22.665 28.46 23.165C28.02 23.645 27.8 24.365 27.8 25.325C27.8 25.785 27.85 26.255 27.95 26.735C28.07 27.215 28.24 27.825 28.46 28.565H33.89V32.015H29.21V32.105C29.21 32.885 29.05 33.695 28.73 34.535C28.41 35.375 27.91 36.105 27.23 36.725H37.64V40.745H26.7578C27.2382 42.073 27.5 43.5058 27.5 45C27.5 46.7693 27.126 48.4673 26.4453 50H38.38C45.66 50 50 45.66 50 38.38V21.62C50 14.34 45.66 10 38.38 10Z" fill="#0E0F11"/>
<path d="M15 35C9.475 35 5 39.475 5 45C5 46.875 5.525 48.65 6.45 50.15C8.175 53.05 11.35 55 15 55C18.65 55 21.825 53.05 23.55 50.15C24.475 48.65 25 46.875 25 45C25 39.475 20.525 35 15 35ZM20.3864 43.95L15.0615 48.875C14.7115 49.2 14.2364 49.375 13.7864 49.375C13.3114 49.375 12.8364 49.2 12.4614 48.825L9.98645 46.35C9.26145 45.625 9.26145 44.425 9.98645 43.7C10.7114 42.975 11.9114 42.975 12.6364 43.7L13.8364 44.9L17.8364 41.2C18.5864 40.5 19.7865 40.55 20.4865 41.3C21.1865 42.05 21.1364 43.25 20.3864 43.95Z" fill="#0E0F11"/>
</svg>
