<svg width="20" height="20" viewBox="0 0 20 20" fill="none" xmlns="http://www.w3.org/2000/svg">
<path d="M13.1501 1.6665H6.85008C3.70008 1.6665 2.91675 2.50817 2.91675 5.8665V15.2498C2.91675 17.4665 4.13341 17.9915 5.60841 16.4082L5.61675 16.3998C6.30008 15.6748 7.34175 15.7332 7.93342 16.5248L8.77508 17.6498C9.45008 18.5415 10.5417 18.5415 11.2167 17.6498L12.0584 16.5248C12.6584 15.7248 13.7001 15.6665 14.3834 16.3998C15.8667 17.9832 17.0751 17.4582 17.0751 15.2415V5.8665C17.0834 2.50817 16.3001 1.6665 13.1501 1.6665ZM12.5001 9.7915H7.50008C7.15841 9.7915 6.87508 9.50817 6.87508 9.1665C6.87508 8.82484 7.15841 8.5415 7.50008 8.5415H12.5001C12.8417 8.5415 13.1251 8.82484 13.1251 9.1665C13.1251 9.50817 12.8417 9.7915 12.5001 9.7915ZM13.3334 6.45817H6.66675C6.32508 6.45817 6.04175 6.17484 6.04175 5.83317C6.04175 5.4915 6.32508 5.20817 6.66675 5.20817H13.3334C13.6751 5.20817 13.9584 5.4915 13.9584 5.83317C13.9584 6.17484 13.6751 6.45817 13.3334 6.45817Z" fill="white"/>
</svg>
