<svg width="60" height="60" viewBox="0 0 60 60" fill="none" xmlns="http://www.w3.org/2000/svg">
<path d="M55 8.125H5C3.975 8.125 3.125 7.275 3.125 6.25C3.125 5.225 3.975 4.375 5 4.375H55C56.025 4.375 56.875 5.225 56.875 6.25C56.875 7.275 56.025 8.125 55 8.125Z" fill="#0E0F11"/>
<path d="M9.17505 6.25V36.175C9.17505 38.625 10.325 40.95 12.3 42.425L25.325 52.175C28.1 54.25 31.925 54.25 34.7 52.175L47.725 42.425C49.7 40.95 50.85 38.625 50.85 36.175V6.25H9.17505ZM40 34.375H20C18.975 34.375 18.125 33.525 18.125 32.5C18.125 31.475 18.975 30.625 20 30.625H40C41.025 30.625 41.875 31.475 41.875 32.5C41.875 33.525 41.025 34.375 40 34.375ZM40 21.875H20C18.975 21.875 18.125 21.025 18.125 20C18.125 18.975 18.975 18.125 20 18.125H40C41.025 18.125 41.875 18.975 41.875 20C41.875 21.025 41.025 21.875 40 21.875Z" fill="#0E0F11"/>
</svg>
