<svg width="60" height="60" viewBox="0 0 60 60" fill="none" xmlns="http://www.w3.org/2000/svg">
<path d="M40.475 5H19.525C10.425 5 5 10.425 5 19.525V40.45C5 49.575 10.425 55 19.525 55H40.45C49.55 55 54.975 49.575 54.975 40.475V19.525C55 10.425 49.575 5 40.475 5ZM19.075 45.375C19.075 46.4 18.225 47.25 17.2 47.25C16.175 47.25 15.325 46.4 15.325 45.375V40.2C15.325 39.175 16.175 38.325 17.2 38.325C18.225 38.325 19.075 39.175 19.075 40.2V45.375ZM31.875 45.375C31.875 46.4 31.025 47.25 30 47.25C28.975 47.25 28.125 46.4 28.125 45.375V35C28.125 33.975 28.975 33.125 30 33.125C31.025 33.125 31.875 33.975 31.875 35V45.375ZM44.675 45.375C44.675 46.4 43.825 47.25 42.8 47.25C41.775 47.25 40.925 46.4 40.925 45.375V29.825C40.925 28.8 41.775 27.95 42.8 27.95C43.825 27.95 44.675 28.8 44.675 29.825V45.375ZM44.675 21.925C44.675 22.95 43.825 23.8 42.8 23.8C41.775 23.8 40.925 22.95 40.925 21.925V19.5C34.55 26.05 26.575 30.675 17.65 32.9C17.5 32.95 17.35 32.95 17.2 32.95C16.35 32.95 15.6 32.375 15.375 31.525C15.125 30.525 15.725 29.5 16.75 29.25C25.175 27.15 32.675 22.725 38.625 16.475H35.5C34.475 16.475 33.625 15.625 33.625 14.6C33.625 13.575 34.475 12.725 35.5 12.725H42.825C42.925 12.725 43 12.775 43.1 12.775C43.225 12.8 43.35 12.8 43.475 12.85C43.6 12.9 43.7 12.975 43.825 13.05C43.9 13.1 43.975 13.125 44.05 13.175C44.075 13.2 44.075 13.225 44.1 13.225C44.2 13.325 44.275 13.425 44.35 13.525C44.425 13.625 44.5 13.7 44.525 13.8C44.575 13.9 44.575 14 44.6 14.125C44.625 14.25 44.675 14.375 44.675 14.525C44.675 14.55 44.7 14.575 44.7 14.6V21.925H44.675Z" fill="currentcolor"/>
</svg>
