<svg width="60" height="60" viewBox="0 0 60 60" fill="none" xmlns="http://www.w3.org/2000/svg">
<path d="M55.85 23.325L50.85 20.825C49.925 20.375 48.775 20.725 48.325 21.65C47.85 22.6 48.225 23.725 49.15 24.175L53.125 26.15V38.125L43.75 38.15V12.5C43.75 7.5 40.4 5 36.25 5H16.25C12.1 5 8.75 7.5 8.75 12.5V53.125H5C3.975 53.125 3.125 53.975 3.125 55C3.125 56.025 3.975 56.875 5 56.875H47.5C48.525 56.875 49.375 56.025 49.375 55C49.375 53.975 48.525 53.125 47.5 53.125H43.75V41.9L55 41.875C56.05 41.875 56.875 41.025 56.875 40V25C56.875 24.3 56.475 23.65 55.85 23.325ZM15 17.225C15 13.75 17.125 12.5 19.725 12.5H32.8C35.375 12.5 37.5 13.75 37.5 17.225V20.3C37.5 23.75 35.375 25 32.775 25H19.725C17.125 25 15 23.75 15 20.275V17.225ZM16.25 30.625H23.75C24.775 30.625 25.625 31.475 25.625 32.5C25.625 33.525 24.775 34.375 23.75 34.375H16.25C15.225 34.375 14.375 33.525 14.375 32.5C14.375 31.475 15.225 30.625 16.25 30.625Z" fill="currentcolor"/>
</svg>
