<svg width="60" height="60" viewBox="0 0 60 60" fill="none" xmlns="http://www.w3.org/2000/svg">
<path d="M7.43961 41.1747C6.27424 38.9918 5.00274 36.8089 5.00274 34.5219C4.79101 21.9439 17.1862 12.3804 29.6874 15.291C32.6537 16.0187 35.5144 16.9544 38.4807 17.2662C45.155 17.9934 51.2998 6.45531 51.7236 5C65.2842 29.5323 34.4549 53.337 10.9356 46.3724C11.1473 50.3224 13.0543 54.7923 13.0543 54.7923L10.5118 55C8.81649 51.8813 9.1346 45.3326 9.66413 42.7338C12.4187 29.74 33.1834 23.0872 44.5193 22.3595C33.7131 20.4884 9.77007 27.3493 7.43933 41.1746L7.43961 41.1747Z" fill="#0E0F11"/>
</svg>
