<svg width="20" height="20" viewBox="0 0 20 20" fill="none" xmlns="http://www.w3.org/2000/svg">
<path d="M9.99984 18.9584C5.05817 18.9584 1.0415 14.9417 1.0415 10.0001C1.0415 5.05841 5.05817 1.04175 9.99984 1.04175C14.9415 1.04175 18.9582 5.05841 18.9582 10.0001C18.9582 14.9417 14.9415 18.9584 9.99984 18.9584ZM9.99984 2.29175C5.74984 2.29175 2.2915 5.75008 2.2915 10.0001C2.2915 14.2501 5.74984 17.7084 9.99984 17.7084C14.2498 17.7084 17.7082 14.2501 17.7082 10.0001C17.7082 5.75008 14.2498 2.29175 9.99984 2.29175Z" fill="#0E0F11"/>
<path d="M10 8.75008C10.3417 8.75008 10.625 9.03341 10.625 9.37508L10.625 13.5417C10.625 13.8834 10.3417 14.1667 10 14.1667C9.65833 14.1667 9.375 13.8834 9.375 13.5417L9.375 9.37508C9.375 9.03341 9.65833 8.75008 10 8.75008Z" fill="#0E0F11"/>
<path d="M10.0002 6.0416C10.1085 6.0416 10.2168 6.0666 10.3168 6.10827C10.4168 6.14993 10.5085 6.20827 10.5918 6.28327C10.6668 6.3666 10.7252 6.44994 10.7668 6.55827C10.8085 6.65827 10.8335 6.7666 10.8335 6.87493C10.8335 6.98327 10.8085 7.0916 10.7668 7.1916C10.7252 7.2916 10.6668 7.38327 10.5918 7.4666C10.5085 7.5416 10.4168 7.59993 10.3168 7.6416C10.1168 7.72493 9.8835 7.72493 9.6835 7.6416C9.5835 7.59993 9.49183 7.5416 9.4085 7.4666C9.3335 7.38327 9.27516 7.2916 9.2335 7.1916C9.19183 7.0916 9.16683 6.98327 9.16683 6.87493C9.16683 6.7666 9.19183 6.65827 9.2335 6.55827C9.27516 6.44994 9.3335 6.3666 9.4085 6.28327C9.49183 6.20827 9.5835 6.14993 9.6835 6.10827C9.7835 6.0666 9.89183 6.0416 10.0002 6.0416Z" fill="#0E0F11"/>
</svg>
