<svg width="60" height="61" viewBox="0 0 60 61" fill="none" xmlns="http://www.w3.org/2000/svg">
<path opacity="0.2" d="M52.5 21.9501V39.0499C52.5 41.8499 51.014 44.45 48.6117 45.875L33.9007 54.45C31.4983 55.85 28.5264 55.85 26.0993 54.45L11.3883 45.875C8.98597 44.475 7.5 41.8749 7.5 39.0499V21.9501C7.5 19.1501 8.98597 16.55 11.3883 15.125L26.0993 6.55C28.5017 5.15 31.4736 5.15 33.9007 6.55L48.6117 15.125C51.014 16.55 52.5 19.1251 52.5 21.9501Z" fill="#0E0F11"/>
<mask id="mask0_146_2563" style="mask-type:alpha" maskUnits="userSpaceOnUse" x="7" y="5" width="46" height="51">
<path d="M52.5 21.9501V39.0499C52.5 41.8499 51.014 44.45 48.6117 45.875L33.9007 54.45C31.4983 55.85 28.5264 55.85 26.0993 54.45L11.3883 45.875C8.98597 44.475 7.5 41.8749 7.5 39.0499V21.9501C7.5 19.1501 8.98597 16.55 11.3883 15.125L26.0993 6.55C28.5017 5.15 31.4736 5.15 33.9007 6.55L48.6117 15.125C51.014 16.55 52.5 19.1251 52.5 21.9501Z" fill="#3B4757"/>
</mask>
<g mask="url(#mask0_146_2563)">
<path d="M46.1014 54.6498C44.4514 55.2248 42.5514 55.4999 40.4764 55.4999H19.5264C17.4514 55.4999 15.5514 55.2248 13.9014 54.6498C14.7764 48.0498 21.6764 42.9248 30.0014 42.9248C38.3264 42.9248 45.2264 48.0498 46.1014 54.6498Z" fill="#0E0F11"/>
<path d="M38.9498 29.45C38.9498 34.4 34.9498 38.425 29.9998 38.425C25.0498 38.425 21.0498 34.4 21.0498 29.45C21.0498 24.5 25.0498 20.5 29.9998 20.5C34.9498 20.5 38.9498 24.5 38.9498 29.45Z" fill="#0E0F11"/>
</g>
</svg>
