<svg width="60" height="61" viewBox="0 0 60 61" fill="none" xmlns="http://www.w3.org/2000/svg">
<path opacity="0.2" d="M52.5 21.9501V39.0499C52.5 41.8499 51.014 44.45 48.6117 45.875L33.9007 54.45C31.4983 55.85 28.5264 55.85 26.0993 54.45L11.3883 45.875C8.98597 44.475 7.5 41.8749 7.5 39.0499V21.9501C7.5 19.1501 8.98597 16.55 11.3883 15.125L26.0993 6.55C28.5017 5.15 31.4736 5.15 33.9007 6.55L48.6117 15.125C51.014 16.55 52.5 19.1251 52.5 21.9501Z" fill="#0E0F11"/>
<circle cx="18.75" cy="19.25" r="3.75" fill="#0E0F11"/>
<circle cx="30" cy="19.25" r="3.75" fill="#0E0F11"/>
<circle cx="18.75" cy="41.75" r="3.75" fill="#0E0F11"/>
<circle cx="30" cy="41.75" r="3.75" fill="#0E0F11"/>
<circle cx="41.25" cy="19.25" r="3.75" fill="#0E0F11"/>
<rect x="17.8125" y="19.25" width="1.875" height="22.5" fill="#0E0F11"/>
<rect x="29.0625" y="19.25" width="1.875" height="20.625" fill="#0E0F11"/>
<path fill-rule="evenodd" clip-rule="evenodd" d="M17.8125 29.5625V31.4375H41.1875C41.7398 31.4375 42.1875 30.9898 42.1875 30.4375V22.0625H40.3125V29.1625C40.3125 29.3834 40.1334 29.5625 39.9125 29.5625H17.8125Z" fill="#0E0F11"/>
<path fill-rule="evenodd" clip-rule="evenodd" d="M40.8463 41.3831L42.7443 44.8281H45.2533L43.1473 41.2141C43.8147 41.0148 44.3173 40.6768 44.6553 40.2001C45.002 39.7235 45.1753 39.1818 45.1753 38.5751C45.1753 38.0378 45.0497 37.5525 44.7983 37.1191C44.547 36.6771 44.1657 36.3305 43.6543 36.0791C43.1517 35.8278 42.5407 35.7021 41.8213 35.7021H38.0903V44.8281H40.3133V41.3831H40.8463ZM41.6913 39.8101H40.3133V37.5481H41.6913C42.0987 37.5481 42.402 37.6478 42.6013 37.8471C42.8093 38.0465 42.9133 38.3195 42.9133 38.6661C42.9133 39.0301 42.8093 39.3118 42.6013 39.5111C42.402 39.7105 42.0987 39.8101 41.6913 39.8101Z" fill="#0E0F11"/>
</svg>
