<svg width="60" height="61" viewBox="0 0 60 61" fill="none" xmlns="http://www.w3.org/2000/svg">
<path opacity="0.2" d="M52.5 21.9501V39.0499C52.5 41.8499 51.014 44.45 48.6117 45.875L33.9007 54.45C31.4983 55.85 28.5264 55.85 26.0993 54.45L11.3883 45.875C8.98597 44.475 7.5 41.8749 7.5 39.0499V21.9501C7.5 19.1501 8.98597 16.55 11.3883 15.125L26.0993 6.55C28.5017 5.15 31.4736 5.15 33.9007 6.55L48.6117 15.125C51.014 16.55 52.5 19.1251 52.5 21.9501Z" fill="#0E0F11"/>
<path d="M16.6666 24.1665C16.6666 22.2809 16.6666 21.3381 17.2524 20.7523C17.8382 20.1665 18.781 20.1665 20.6666 20.1665H39.3333C41.2189 20.1665 42.1617 20.1665 42.7475 20.7523C43.3333 21.3381 43.3333 22.2809 43.3333 24.1665V25.8332C43.3333 26.3046 43.3333 26.5403 43.1868 26.6867C43.0404 26.8332 42.8047 26.8332 42.3333 26.8332H17.6666C17.1952 26.8332 16.9595 26.8332 16.8131 26.6867C16.6666 26.5403 16.6666 26.3046 16.6666 25.8332V24.1665Z" fill="#0E0F11"/>
<path fill-rule="evenodd" clip-rule="evenodd" d="M17.2524 42.2475C16.6666 41.6618 16.6666 40.719 16.6666 38.8333V30.5C16.6666 30.0286 16.6666 29.7929 16.8131 29.6464C16.9595 29.5 17.1952 29.5 17.6666 29.5H42.3333C42.8047 29.5 43.0404 29.5 43.1868 29.6464C43.3333 29.7929 43.3333 30.0286 43.3333 30.5V38.8333C43.3333 40.719 43.3333 41.6618 42.7475 42.2475C42.1617 42.8333 41.2189 42.8333 39.3333 42.8333H20.6666C18.781 42.8333 17.8382 42.8333 17.2524 42.2475ZM24.6666 35.1667C24.1143 35.1667 23.6666 35.6144 23.6666 36.1667C23.6666 36.719 24.1143 37.1667 24.6666 37.1667H35.3333C35.8856 37.1667 36.3333 36.719 36.3333 36.1667C36.3333 35.6144 35.8856 35.1667 35.3333 35.1667H24.6666Z" fill="#0E0F11"/>
<path fill-rule="evenodd" clip-rule="evenodd" d="M23.3334 16.5C23.8857 16.5 24.3334 16.9477 24.3334 17.5L24.3334 21.5C24.3334 22.0523 23.8857 22.5 23.3334 22.5C22.7811 22.5 22.3334 22.0523 22.3334 21.5L22.3334 17.5C22.3334 16.9477 22.7811 16.5 23.3334 16.5Z" fill="#0E0F11"/>
<path fill-rule="evenodd" clip-rule="evenodd" d="M36.6667 16.5C37.219 16.5 37.6667 16.9477 37.6667 17.5L37.6667 21.5C37.6667 22.0523 37.219 22.5 36.6667 22.5C36.1145 22.5 35.6667 22.0523 35.6667 21.5L35.6667 17.5C35.6667 16.9477 36.1145 16.5 36.6667 16.5Z" fill="#0E0F11"/>
</svg>
