<svg width="162" height="162" viewBox="0 0 162 162" fill="none" xmlns="http://www.w3.org/2000/svg">
<g opacity="0.1">
<path d="M2.20848 0C1.16946 0 0.649963 0 0.327179 0.32278C0.00439453 0.645561 0.00439453 1.16507 0.00439453 2.20408V51.7957C0.00439453 52.8348 0.00439453 53.3543 0.327179 53.677C0.649963 53.9998 1.16946 53.9998 2.20848 53.9998H105.795C106.834 53.9998 107.354 53.9998 107.676 54.3226C107.999 54.6454 107.999 55.1649 107.999 56.2039V159.795C107.999 160.834 107.999 161.354 108.322 161.677C108.645 161.999 109.164 161.999 110.203 161.999H159.794C160.833 161.999 161.352 161.999 161.675 161.677C161.998 161.354 161.998 160.834 161.998 159.795L162 2.20412C162 1.16509 162 0.645571 161.677 0.322786C161.354 0 160.835 0 159.796 0H2.20848Z" fill="white"/>
<path d="M0 110.204C0 109.165 0 108.646 0.322784 108.323C0.645569 108 1.16507 108 2.20409 108H51.7945C52.8335 108 53.353 108 53.6758 108.323C53.9985 108.646 53.9985 109.165 53.9985 110.204V159.796C53.9985 160.835 53.9985 161.354 53.6758 161.677C53.353 162 52.8335 162 51.7945 162H2.20409C1.16507 162 0.645569 162 0.322784 161.677C0 161.354 0 160.835 0 159.796V110.204Z" fill="white"/>
</g>
</svg>
