<svg width="120" height="72" viewBox="0 0 120 72" fill="none" xmlns="http://www.w3.org/2000/svg">
<path d="M15.5284 33.0001C14.6164 33.0001 13.8604 32.7001 13.2604 32.1001C12.6604 31.5001 12.3604 30.7561 12.3604 29.8681C12.3604 29.6281 12.3724 29.4361 12.3964 29.2921L15.1324 12.1921C15.3004 11.1601 15.7924 10.2841 16.6084 9.56413C17.4484 8.84413 18.3844 8.48413 19.4164 8.48413H33.6364C34.5484 8.48413 35.3044 8.78413 35.9044 9.38413C36.5044 9.98413 36.8044 10.7281 36.8044 11.6161C36.8044 11.8561 36.7924 12.0481 36.7684 12.1921L35.922 17.4817C35.8448 17.9641 35.8063 18.2052 35.638 18.3487C35.4698 18.4921 35.2256 18.4921 34.7371 18.4921H27.694C27.0427 18.4921 26.717 18.4921 26.5374 18.2823C26.3578 18.0725 26.408 17.7508 26.5083 17.1072L26.6884 15.9531C26.7887 15.3095 26.8389 14.9877 26.6593 14.7779C26.4797 14.5681 26.154 14.5681 25.5027 14.5681H25.2302C24.7406 14.5681 24.4958 14.5681 24.3274 14.7121C24.159 14.856 24.121 15.0978 24.0448 15.5815L22.4787 25.5295C22.3772 26.1738 22.3265 26.4959 22.5061 26.706C22.6858 26.9161 23.0119 26.9161 23.6641 26.9161H23.9408C24.4276 26.9161 24.671 26.9161 24.8391 26.7734C25.0071 26.6306 25.0464 26.3904 25.125 25.9099L25.4437 23.9623C25.5223 23.4819 25.5616 23.2417 25.7297 23.0989C25.8977 22.9561 26.1411 22.9561 26.6279 22.9561H33.6624C34.3189 22.9561 34.6471 22.9561 34.8269 23.1679C35.0066 23.3796 34.9532 23.7035 34.8465 24.3512L34.0324 29.2921C33.8644 30.3241 33.3604 31.2001 32.5204 31.9201C31.7044 32.6401 30.7804 33.0001 29.7484 33.0001H15.5284Z" fill="currentcolor"/>
<path d="M36.0122 27.2517C36.0388 27.085 36.0521 27.0016 36.0872 26.9261C36.1222 26.8505 36.1773 26.7865 36.2874 26.6585L44.9807 16.5506C45.7164 15.6953 46.0842 15.2676 45.9237 14.9179C45.7632 14.5681 45.1991 14.5681 44.0709 14.5681H39.4167C38.7632 14.5681 38.4364 14.5681 38.2567 14.3575C38.0771 14.1469 38.1286 13.8242 38.2318 13.1788L38.8203 9.49482C38.8974 9.01235 38.9359 8.77112 39.1042 8.62763C39.2724 8.48413 39.5167 8.48413 40.0053 8.48413H56.9429C57.5964 8.48413 57.9232 8.48413 58.1028 8.69477C58.2825 8.90541 58.2309 9.22809 58.1278 9.87345L57.4312 14.2337C57.4047 14.3998 57.3914 14.4829 57.3565 14.5583C57.3216 14.6337 57.2669 14.6975 57.1574 14.8253L48.4917 24.9352C47.759 25.7901 47.3926 26.2176 47.5532 26.5668C47.7139 26.9161 48.2769 26.9161 49.4029 26.9161H54.0269C54.6804 26.9161 55.0072 26.9161 55.1868 27.1268C55.3665 27.3374 55.3149 27.6601 55.2118 28.3054L54.6233 31.9894C54.5462 32.4719 54.5076 32.7131 54.3394 32.8566C54.1712 33.0001 53.9269 33.0001 53.4383 33.0001H36.5007C35.8472 33.0001 35.5204 33.0001 35.3408 32.7895C35.1611 32.5789 35.2126 32.2562 35.3158 31.6108L36.0122 27.2517Z" fill="currentcolor"/>
<path d="M62.0554 9.34133C62.1785 8.92845 62.24 8.72201 62.3996 8.60307C62.5591 8.48413 62.7746 8.48413 63.2054 8.48413H77.25C77.8264 8.48413 78.1146 8.48413 78.2911 8.66425C78.4675 8.84437 78.4616 9.13251 78.4497 9.7088L77.9951 31.8248C77.9837 32.3798 77.978 32.6573 77.803 32.8287C77.628 33.0001 77.3505 33.0001 76.7953 33.0001H69.789C69.1864 33.0001 68.8852 33.0001 68.7073 32.8095C68.5293 32.6188 68.5502 32.3183 68.5918 31.7172L68.666 30.6471C68.7077 30.046 68.7285 29.7455 68.5506 29.5548C68.3727 29.3641 68.0714 29.3641 67.4689 29.3641H66.3371C65.8902 29.3641 65.6667 29.3641 65.5044 29.4899C65.3422 29.6157 65.2864 29.8321 65.175 30.265L64.7028 32.0993C64.5914 32.5321 64.5357 32.7486 64.3734 32.8743C64.2111 33.0001 63.9877 33.0001 63.5407 33.0001H56.6128C55.8754 33.0001 55.5068 33.0001 55.3268 32.7587C55.1468 32.5173 55.2522 32.164 55.4628 31.4573L62.0554 9.34133ZM69.4389 18.6361C69.5575 17.1731 69.6762 15.9951 69.7948 15.1021C69.8321 14.8208 69.615 14.5681 69.3312 14.5681C69.1031 14.5681 68.9092 14.7344 68.8723 14.9596C68.6473 16.3355 68.3921 17.561 68.1069 18.6361L67.1573 22.5158C67.04 22.9952 66.9813 23.2349 67.059 23.4183C67.1006 23.5163 67.1674 23.6014 67.2527 23.6651C67.4123 23.7841 67.6591 23.7841 68.1527 23.7841C68.5279 23.7841 68.7155 23.7841 68.8567 23.7007C68.9329 23.6557 68.9982 23.5944 69.0479 23.5212C69.14 23.3855 69.1518 23.1983 69.1754 22.8238L69.4389 18.6361Z" fill="currentcolor"/>
<path d="M100.328 8.48413C101.24 8.48413 101.996 8.78413 102.596 9.38413C103.196 9.98413 103.496 10.7281 103.496 11.6161C103.496 11.8561 103.484 12.0481 103.46 12.1921L102.272 19.7161C102.104 20.7481 101.6 21.6241 100.76 22.3441C100.03 22.9697 99.2275 23.3235 98.3527 23.4056C98.1227 23.4271 97.9258 23.5927 97.8907 23.821C97.8471 24.1045 98.0691 24.3553 98.3492 24.4172C98.7242 24.5 99.0597 24.673 99.3558 24.9361C99.8118 25.2961 100.088 25.7761 100.184 26.3761L100.954 31.6259C101.048 32.2651 101.095 32.5847 100.915 32.7924C100.736 33.0001 100.413 33.0001 99.7668 33.0001H92.5042C91.9958 33.0001 91.7416 33.0001 91.571 32.8483C91.4004 32.6964 91.371 32.4439 91.3122 31.9389L90.5318 25.2325C90.5259 25.182 90.523 25.1568 90.5188 25.1351C90.4677 24.8687 90.2442 24.6697 89.9737 24.6498C89.9516 24.6481 89.9262 24.6481 89.8755 24.6481C89.8266 24.6481 89.8022 24.6481 89.7808 24.6497C89.5186 24.6684 89.2992 24.8556 89.2394 25.1116C89.2345 25.1324 89.2307 25.1566 89.223 25.2048L88.141 31.9891C88.064 32.4717 88.0255 32.713 87.8573 32.8566C87.689 33.0001 87.4447 33.0001 86.956 33.0001H79.9171C79.2642 33.0001 78.9378 33.0001 78.7581 32.7898C78.5785 32.5794 78.6296 32.257 78.7319 31.6122L82.2393 9.49617C82.3159 9.0131 82.3542 8.77157 82.5225 8.62785C82.6908 8.48413 82.9353 8.48413 83.4244 8.48413H100.328ZM91.9918 18.2761C92.4823 18.2761 92.7276 18.2761 92.8961 18.1318C93.0646 17.9875 93.1022 17.7451 93.1776 17.2603L93.3807 15.9523C93.4807 15.3091 93.5306 14.9874 93.351 14.7778C93.1714 14.5681 92.8459 14.5681 92.195 14.5681H91.9237C91.4332 14.5681 91.1879 14.5681 91.0194 14.7125C90.8509 14.8568 90.8133 15.0992 90.738 15.5839L90.5348 16.8919C90.4349 17.5352 90.3849 17.8568 90.5645 18.0665C90.7441 18.2761 91.0696 18.2761 91.7206 18.2761H91.9918Z" fill="currentcolor"/>
<path d="M63.6359 38.4839C64.5479 38.4839 65.3039 38.7839 65.9039 39.3839C66.5039 39.9839 66.8039 40.7279 66.8039 41.6159C66.8039 41.8559 66.7919 42.0479 66.7679 42.1919L65.3639 50.9399C65.1959 51.9719 64.6919 52.8599 63.8519 53.6039C63.0359 54.3239 62.1119 54.6839 61.0799 54.6839H53.643C53.1546 54.6839 52.9104 54.6839 52.7422 54.8273C52.574 54.9707 52.5354 55.2118 52.4581 55.6941L51.4497 61.9897C51.3725 62.4719 51.3339 62.7131 51.1657 62.8565C50.9974 62.9999 50.7532 62.9999 50.2649 62.9999H43.2252C42.5724 62.9999 42.246 62.9999 42.0663 62.7895C41.8867 62.5791 41.9378 62.2567 42.0401 61.6119L45.5474 39.4959C45.624 39.0129 45.6624 38.7713 45.8307 38.6276C45.999 38.4839 46.2435 38.4839 46.7326 38.4839H63.6359ZM55.2334 48.5999C55.7216 48.5999 55.9656 48.5999 56.1338 48.4566C56.302 48.3133 56.3407 48.0723 56.4182 47.5903L56.6805 45.9583C56.7843 45.3125 56.8362 44.9896 56.6565 44.7787C56.4768 44.5679 56.1498 44.5679 55.4957 44.5679H55.2355C54.7434 44.5679 54.4973 44.5679 54.3286 44.7129C54.1599 44.8579 54.123 45.1012 54.0491 45.5878L53.8014 47.2198C53.704 47.8614 53.6553 48.1822 53.8349 48.391C54.0145 48.5999 54.3389 48.5999 54.9878 48.5999H55.2334Z" fill="currentcolor" opacity="0.4"
/>
<path d="M68.7311 62.9999C67.8191 62.9999 67.0631 62.6999 66.4631 62.0999C65.8631 61.4999 65.5631 60.7559 65.5631 59.8679C65.5631 59.6279 65.5751 59.4359 65.5991 59.2919L68.3351 42.1919C68.5031 41.1599 68.9951 40.2839 69.8111 39.5639C70.6511 38.8439 71.5871 38.4839 72.6191 38.4839H86.8391C87.7511 38.4839 88.5071 38.7839 89.1071 39.3839C89.7071 39.9839 90.0071 40.7279 90.0071 41.6159C90.0071 41.8559 89.9951 42.0479 89.9711 42.1919L89.1247 47.4815C89.0476 47.9638 89.009 48.205 88.8407 48.3484C88.6725 48.4919 88.4283 48.4919 87.9398 48.4919H80.8967C80.2454 48.4919 79.9197 48.4919 79.7401 48.2821C79.5605 48.0723 79.6107 47.7505 79.7111 47.107L79.8911 45.9528C79.9914 45.3092 80.0416 44.9875 79.862 44.7777C79.6824 44.5679 79.3567 44.5679 78.7054 44.5679H78.4329C77.9433 44.5679 77.6985 44.5679 77.5301 44.7118C77.3617 44.8558 77.3237 45.0976 77.2475 45.5813L75.6814 55.5293C75.5799 56.1735 75.5292 56.4957 75.7089 56.7058C75.8885 56.9159 76.2146 56.9159 76.8668 56.9159H77.1435C77.6303 56.9159 77.8738 56.9159 78.0418 56.7731C78.2098 56.6304 78.2491 56.3901 78.3277 55.9097L78.6464 53.9621C78.725 53.4816 78.7643 53.2414 78.9324 53.0986C79.1004 52.9559 79.3438 52.9559 79.8307 52.9559H86.8652C87.5216 52.9559 87.8499 52.9559 88.0296 53.1676C88.2093 53.3794 88.1559 53.7033 88.0492 54.351L87.2351 59.2919C87.0671 60.3239 86.5631 61.1999 85.7231 61.9199C84.9071 62.6399 83.9831 62.9999 82.9511 62.9999H68.7311Z" fill="currentcolor" opacity="0.4"
/>
<path d="M92.0045 62.9999C91.0925 62.9999 90.3365 62.6999 89.7365 62.0999C89.1365 61.4999 88.8365 60.7559 88.8365 59.8679C88.8365 59.6279 88.8485 59.4359 88.8725 59.2919L91.6085 42.1919C91.7765 41.1599 92.2685 40.2839 93.0845 39.5639C93.9245 38.8439 94.8605 38.4839 95.8925 38.4839H110.113C111.025 38.4839 111.781 38.7839 112.381 39.3839C112.98 39.9839 113.281 40.7279 113.281 41.6159C113.281 41.8559 113.269 42.0479 113.245 42.1919L110.508 59.2919C110.34 60.3239 109.837 61.1999 108.997 61.9199C108.181 62.6399 107.257 62.9999 106.225 62.9999H92.0045ZM100.411 56.9159C100.9 56.9159 101.145 56.9159 101.313 56.7719C101.482 56.628 101.52 56.3862 101.596 55.9025L103.162 45.9545C103.264 45.3103 103.314 44.9881 103.135 44.778C102.955 44.5679 102.629 44.5679 101.977 44.5679H101.706C101.217 44.5679 100.972 44.5679 100.804 44.7118C100.635 44.8558 100.597 45.0976 100.521 45.5813L98.9548 55.5293C98.8534 56.1735 98.8027 56.4957 98.9823 56.7058C99.1619 56.9159 99.488 56.9159 100.14 56.9159H100.411Z" fill="currentcolor" opacity="0.4"
/>
<path fill-rule="evenodd" clip-rule="evenodd" d="M28.5002 42H19.5003C18.6625 42 18.2435 42 17.8845 42.1157C17.2414 42.323 16.6775 42.7887 16.3525 43.3811C16.171 43.7118 16.0918 44.1232 15.9335 44.946C15.7753 45.7688 15.6961 46.1801 15.7503 46.5109C15.8474 47.1032 16.2321 47.569 16.7955 47.7762C17.11 47.892 17.5289 47.892 18.3668 47.892H23.1666C25.1465 47.892 26.1365 47.892 26.6353 48.4959C27.1342 49.0999 26.9472 50.0721 26.5731 52.0163L25.6663 56.7299C25.508 57.5527 25.4289 57.964 25.4831 58.2948C25.5802 58.8871 25.9649 59.3529 26.5282 59.5601C26.8427 59.6759 27.2617 59.6759 28.0995 59.6759C28.9374 59.6759 29.3563 59.6759 29.7154 59.5601C30.3585 59.3529 30.9224 58.8871 31.2474 58.2948C31.4289 57.964 31.508 57.5527 31.6663 56.7299L33.3666 47.892C33.3666 47.892 33.3667 47.892 33.3667 47.892C33.3667 47.892 33.3668 47.8919 33.3668 47.8919L34.5003 42.0002C34.5003 42.0001 34.5002 42 34.5002 42H28.5002ZM13.6661 56.7299C13.8244 55.9071 13.9036 55.4958 14.085 55.165C14.4101 54.5727 14.974 54.107 15.6171 53.8997C15.9761 53.784 16.395 53.784 17.2329 53.784C18.0708 53.784 18.4897 53.784 18.8042 53.8997C19.3676 54.107 19.7522 54.5727 19.8494 55.165C19.9036 55.4958 19.8244 55.9071 19.6661 56.7299C19.5078 57.5527 19.4287 57.9641 19.2472 58.2948C18.9222 58.8872 18.3583 59.3529 17.7152 59.5602C17.3562 59.6759 16.9372 59.6759 16.0994 59.6759C15.2615 59.6759 14.8426 59.6759 14.528 59.5602C13.9647 59.3529 13.58 58.8872 13.4829 58.2948C13.4287 57.9641 13.5078 57.5527 13.6661 56.7299Z" fill="currentcolor" opacity="0.4"
/>
</svg>
