<svg width="24" height="24" viewBox="0 0 24 24" fill="none" xmlns="http://www.w3.org/2000/svg">
<path fill-rule="evenodd" clip-rule="evenodd" d="M11.9998 22C10.2214 22.001 8.4748 21.5281 6.9398 20.63L3.6698 21.53C3.50039 21.5762 3.32179 21.577 3.15198 21.5323C2.98217 21.4876 2.82714 21.3989 2.70246 21.2753C2.57779 21.1516 2.48787 20.9973 2.44177 20.8279C2.39566 20.6584 2.39498 20.4798 2.4398 20.31L3.3298 17C2.57804 15.6931 2.13153 14.2332 2.02367 12.7293C1.91581 11.2255 2.14939 9.71673 2.70694 8.31591C3.26448 6.9151 4.13156 5.65848 5.24331 4.64007C6.35507 3.62166 7.68271 2.86783 9.12693 2.43495C10.5711 2.00207 12.0945 1.90136 13.5832 2.14035C15.0718 2.37934 16.4871 2.95184 17.7233 3.81503C18.9594 4.67823 19.9844 5.80976 20.7215 7.12499C21.4586 8.44022 21.8888 9.9051 21.9798 11.41C22.0385 12.7653 21.825 14.1185 21.3519 15.3898C20.8789 16.6611 20.1558 17.8248 19.2255 18.812C18.2952 19.7991 17.1764 20.5899 15.9354 21.1375C14.6943 21.685 13.3561 21.9783 11.9998 22ZM16.8698 15.72C16.9552 15.5492 16.9997 15.3609 16.9998 15.17C16.993 15.046 16.9797 14.9225 16.9598 14.8C16.8953 14.6712 16.7989 14.561 16.6798 14.48L15.0198 13.3C14.9109 13.2206 14.7935 13.1535 14.6698 13.1C14.5729 13.0542 14.467 13.0303 14.3598 13.03C14.2319 13.0325 14.1073 13.0706 13.9998 13.14C13.8671 13.2157 13.7459 13.31 13.6398 13.42L13.2598 13.8C13.2154 13.8423 13.1599 13.8713 13.0998 13.8836C13.0397 13.896 12.9774 13.8913 12.9198 13.87C12.9048 13.865 12.8898 13.8575 12.8748 13.85C12.8598 13.8425 12.8448 13.835 12.8298 13.83C12.5978 13.6996 12.3799 13.5454 12.1798 13.37C11.9098 13.14 11.6398 12.89 11.3798 12.63C11.1198 12.37 10.8798 12.1 10.6498 11.84C10.4724 11.6427 10.3149 11.4283 10.1798 11.2C10.1691 11.1657 10.1557 11.1322 10.1398 11.1C10.1283 11.0609 10.1216 11.0206 10.1198 10.98C10.1179 10.9428 10.124 10.9057 10.1378 10.8712C10.1517 10.8367 10.1728 10.8055 10.1998 10.78L10.5798 10.38C10.6884 10.2726 10.7825 10.1516 10.8598 10.02C10.9279 9.91192 10.9659 9.78764 10.9698 9.65998C10.9695 9.55276 10.9456 9.44692 10.8998 9.34998C10.848 9.22541 10.7808 9.10783 10.6998 8.99998L9.54981 7.34998C9.46383 7.22766 9.34634 7.13091 9.20981 7.06998C9.08127 7.01066 8.94138 6.97995 8.79981 6.97998C8.60363 6.98361 8.41024 7.02715 8.23144 7.10796C8.05264 7.18876 7.89217 7.30513 7.75981 7.44998C7.50421 7.68144 7.30569 7.96895 7.17981 8.28998C7.05876 8.59895 6.99767 8.92815 6.99981 9.25998C7.00915 9.82519 7.13156 10.3828 7.35981 10.9C7.62141 11.5049 7.95014 12.0785 8.33981 12.61C8.76454 13.1911 9.23253 13.7393 9.73981 14.25C10.2508 14.7568 10.799 15.2248 11.3798 15.65C11.9156 16.0413 12.4923 16.3733 13.0998 16.64C13.6117 16.8747 14.1667 17.0007 14.7298 17.01C15.0661 17.0147 15.3997 16.95 15.7098 16.82C16.0238 16.6871 16.3041 16.4855 16.5298 16.23C16.6646 16.0753 16.7789 15.9039 16.8698 15.72Z" fill="#009665"/>
<path opacity="0.4" d="M17.0001 15.17C17 15.3609 16.9555 15.5492 16.8701 15.72C16.7791 15.9039 16.6648 16.0753 16.5301 16.23C16.3043 16.4855 16.0241 16.6871 15.7101 16.82C15.3999 16.95 15.0663 17.0147 14.7301 17.01C14.167 17.0007 13.612 16.8747 13.1001 16.64C12.4926 16.3733 11.9158 16.0413 11.3801 15.65C10.7993 15.2248 10.2511 14.7568 9.74005 14.25C9.23278 13.7393 8.76478 13.1911 8.34005 12.61C7.95039 12.0785 7.62166 11.5049 7.36005 10.9C7.1318 10.3828 7.0094 9.82519 7.00005 9.25998C6.99792 8.92815 7.05901 8.59895 7.18005 8.28998C7.30594 7.96895 7.50446 7.68144 7.76005 7.44998C7.89241 7.30513 8.05289 7.18876 8.23169 7.10796C8.41049 7.02715 8.60387 6.98361 8.80005 6.97998C8.94162 6.97995 9.08151 7.01066 9.21005 7.06998C9.34659 7.13091 9.46408 7.22766 9.55005 7.34998L10.7001 8.99998C10.7811 9.10783 10.8483 9.22541 10.9001 9.34998C10.9459 9.44692 10.9698 9.55276 10.9701 9.65998C10.9661 9.78764 10.9281 9.91192 10.8601 10.02C10.7827 10.1516 10.6886 10.2726 10.5801 10.38L10.2001 10.78C10.173 10.8055 10.1519 10.8367 10.1381 10.8712C10.1243 10.9057 10.1181 10.9428 10.1201 10.98C10.1218 11.0206 10.1285 11.0609 10.1401 11.1C10.156 11.1322 10.1694 11.1657 10.1801 11.2C10.3152 11.4283 10.4726 11.6427 10.6501 11.84C10.8801 12.1 11.1201 12.37 11.3801 12.63C11.6401 12.89 11.9101 13.14 12.1801 13.37C12.3802 13.5454 12.598 13.6996 12.8301 13.83C12.8601 13.84 12.8901 13.86 12.9201 13.87C12.9776 13.8913 13.04 13.896 13.1001 13.8836C13.1602 13.8713 13.2156 13.8423 13.2601 13.8L13.6401 13.42C13.7461 13.31 13.8673 13.2157 14.0001 13.14C14.1075 13.0706 14.2322 13.0325 14.3601 13.03C14.4673 13.0303 14.5731 13.0542 14.6701 13.1C14.7938 13.1535 14.9112 13.2206 15.0201 13.3L16.6801 14.48C16.7992 14.561 16.8956 14.6712 16.9601 14.8C16.9799 14.9225 16.9933 15.046 17.0001 15.17Z" fill="white"/>
</svg>
