<svg width="60" height="60" viewBox="0 0 60 60" fill="none" xmlns="http://www.w3.org/2000/svg">
<path d="M17.4594 14.5921H14.5396V6.67282C14.5396 4.82498 13.6798 4.45101 12.6309 5.83689L11.875 6.8378L5.47802 15.3071C4.59926 16.462 4.96777 17.4079 6.29063 17.4079H9.21038V25.3272C9.21038 27.175 10.0702 27.549 11.1191 26.1631L11.875 25.1622L18.272 16.6929C19.1507 15.538 18.7822 14.5921 17.4594 14.5921Z" fill="#0E0F11"/>
<path d="M53.0718 33.5272H50.4087L47.3367 25.0993C47.1484 24.5003 46.7829 23.973 46.2889 23.5874C45.7949 23.2018 45.1957 22.9761 44.5708 22.9403C41.1906 22.6309 27.0552 22.6309 23.7778 22.9403C23.1575 22.9912 22.5654 23.2226 22.0742 23.6061C21.5829 23.9896 21.2138 24.5085 21.0119 25.0993L17.9399 33.5272H15.0713C14.95 33.5267 14.8298 33.5502 14.7176 33.5966C14.6054 33.6429 14.5035 33.7111 14.4177 33.7972C14.3319 33.8833 14.264 33.9855 14.2178 34.0981C14.1716 34.2107 14.1481 34.3314 14.1487 34.4531V36.3028L15.172 36.6122C16.403 36.9878 17.4371 37.8348 18.0505 38.9698C18.6639 40.1048 18.8072 41.4366 18.4495 42.6769L16.6063 49.6675C16.7623 49.7931 16.9344 49.8971 17.1179 49.9769V54.4991C17.1275 54.9052 17.2925 55.2919 17.5787 55.5792C17.8649 55.8664 18.2503 56.032 18.655 56.0416H21.9325C22.3371 56.032 22.7225 55.8664 23.0087 55.5792C23.2949 55.2919 23.4599 54.9052 23.4695 54.4991V49.9748H44.7742V54.497C44.7838 54.9031 44.9489 55.2898 45.2351 55.5771C45.5213 55.8643 45.9067 56.0299 46.3113 56.0395H49.5867C49.9913 56.0299 50.3767 55.8643 50.6629 55.5771C50.9491 55.2898 51.1141 54.9031 51.1237 54.497V49.9748C51.3083 49.9305 51.4794 49.8419 51.6222 49.7165C51.765 49.5911 51.8754 49.4328 51.9436 49.2551C52.0604 49.0315 52.1316 48.7869 52.1533 48.5354V40.4147C52.122 39.5439 51.9811 38.6806 51.7339 37.8453H53.0655C53.1868 37.8459 53.307 37.8223 53.4192 37.776C53.5314 37.7297 53.6333 37.6615 53.7191 37.5754C53.8049 37.4893 53.8728 37.387 53.919 37.2744C53.9652 37.1618 53.9887 37.0412 53.9881 36.9194V34.4952C53.9902 33.7566 53.6212 33.5272 53.0718 33.5272V33.5272ZM24.6983 26.7428C27.7703 26.4335 40.7796 26.4335 43.8516 26.7428L46.8229 34.9666H21.7291L24.6983 26.7428ZM27.3593 43.5944C27.3497 44.0005 27.1847 44.3872 26.8985 44.6744C26.6123 44.9617 26.2269 45.1273 25.8223 45.1369H22.138C21.7333 45.1273 21.3479 44.9617 21.0617 44.6744C20.7755 44.3872 20.6105 44.0005 20.6009 43.5944V42.5675C20.6105 42.1614 20.7755 41.7746 21.0617 41.4874C21.3479 41.2002 21.7333 41.0346 22.138 41.025H25.8244C26.229 41.0346 26.6144 41.2002 26.9006 41.4874C27.1868 41.7746 27.3518 42.1614 27.3614 42.5675L27.3593 43.5944ZM47.7414 43.5944C47.7318 44.0005 47.5668 44.3872 47.2806 44.6744C46.9944 44.9617 46.609 45.1273 46.2043 45.1369H44.5646C44.1599 45.1273 43.7745 44.9617 43.4883 44.6744C43.2021 44.3872 43.0371 44.0005 43.0275 43.5944V42.5675C43.0235 42.3638 43.0605 42.1614 43.1364 41.9725C43.2122 41.7835 43.3253 41.6119 43.4688 41.4679C43.6123 41.3238 43.7834 41.2103 43.9717 41.1342C44.1599 41.0581 44.3616 41.021 44.5646 41.025H46.2043C46.609 41.0346 46.9944 41.2002 47.2806 41.4874C47.5668 41.7746 47.7318 42.1614 47.7414 42.5675V43.5944Z" fill="#0E0F11"/>
<path d="M14.9105 33.5272H17.573L20.6443 25.0993C20.8326 24.5003 21.198 23.973 21.6919 23.5874C22.1858 23.2018 22.7849 22.9761 23.4096 22.9403C26.7891 22.6309 40.9214 22.6309 44.1981 22.9403C44.8183 22.9912 45.4102 23.2226 45.9014 23.6061C46.3925 23.9896 46.7616 24.5085 46.9634 25.0993L50.0347 33.5272H52.9027C53.024 33.5267 53.1442 33.5502 53.2563 33.5966C53.3685 33.6429 53.4704 33.7111 53.5562 33.7972C53.642 33.8833 53.7099 33.9855 53.7561 34.0981C53.8022 34.2107 53.8257 34.3314 53.8251 34.4531V36.3028L52.8021 36.6122C51.5713 36.9878 50.5374 37.8348 49.9242 38.9698C49.3109 40.1048 49.1676 41.4366 49.5253 42.6769L51.3681 49.6675C51.2121 49.7931 51.04 49.8971 50.8565 49.9769V54.4991C50.8469 54.9052 50.682 55.2919 50.3958 55.5792C50.1097 55.8664 49.7244 56.032 49.3198 56.0416H46.041C45.6364 56.032 45.2511 55.8664 44.9649 55.5792C44.6788 55.2919 44.5138 54.9052 44.5042 54.4991V49.9748H23.2125V54.497C23.2029 54.9031 23.0379 55.2898 22.7518 55.5771C22.4657 55.8643 22.0803 56.0299 21.6758 56.0395H18.3906C17.9861 56.0299 17.6008 55.8643 17.3146 55.5771C17.0285 55.2898 16.8635 54.9031 16.8539 54.497V49.9748C16.6694 49.9305 16.4983 49.8419 16.3555 49.7165C16.2127 49.5911 16.1024 49.4328 16.0342 49.2551C15.9175 49.0315 15.8462 48.7869 15.8246 48.5354V40.4147C15.8558 39.5439 15.9967 38.6806 16.2438 37.8453H14.9105C14.7892 37.8459 14.669 37.8223 14.5568 37.776C14.4447 37.7297 14.3428 37.6615 14.257 37.5754C14.1712 37.4893 14.1033 37.387 14.0571 37.2744C14.011 37.1618 13.9875 37.0412 13.988 36.9194V34.4952C13.988 33.7566 14.3591 33.5272 14.9105 33.5272V33.5272ZM43.2757 26.7428C40.2044 26.4335 27.1979 26.4335 24.1266 26.7428L21.1559 34.9666H46.2464L43.2757 26.7428ZM40.6132 43.5944C40.6228 44.0005 40.7878 44.3872 41.0739 44.6744C41.36 44.9617 41.7454 45.1273 42.1499 45.1369H45.8355C46.24 45.1273 46.6254 44.9617 46.9115 44.6744C47.1976 44.3872 47.3626 44.0005 47.3722 43.5944V42.5675C47.3626 42.1614 47.1976 41.7746 46.9115 41.4874C46.6254 41.2002 46.24 41.0346 45.8355 41.025H42.1499C41.7454 41.0346 41.36 41.2002 41.0739 41.4874C40.7878 41.7746 40.6228 42.1614 40.6132 42.5675V43.5944ZM20.2355 43.5944C20.2451 44.0005 20.4101 44.3872 20.6962 44.6744C20.9824 44.9617 21.3677 45.1273 21.7722 45.1369H23.4117C23.8162 45.1273 24.2015 44.9617 24.4877 44.6744C24.7738 44.3872 24.9388 44.0005 24.9484 43.5944V42.5675C24.9524 42.3638 24.9153 42.1614 24.8395 41.9725C24.7637 41.7835 24.6507 41.6119 24.5072 41.4679C24.3637 41.3238 24.1927 41.2103 24.0044 41.1342C23.8162 41.0581 23.6146 41.021 23.4117 41.025H21.7722C21.3677 41.0346 20.9824 41.2002 20.6962 41.4874C20.4101 41.7746 20.2451 42.1614 20.2355 42.5675V43.5944Z" fill="#0E0F11"/>
</svg>
