<svg width="60" height="60" viewBox="0 0 60 60" fill="none" xmlns="http://www.w3.org/2000/svg">
<path d="M32.3775 50.0514C32.8492 50.1611 32.896 50.7881 32.439 50.9483C32.2222 51.0242 32.0009 51.0995 31.775 51.1748L27.825 52.4748C17.9 55.6748 12.675 52.9998 9.45 43.0748L6.25 33.1998C3.05 23.2748 5.7 18.0248 15.625 14.8248L18.459 13.8863C18.8619 13.7529 19.2436 14.1528 19.1075 14.5548C18.7869 15.5012 18.4993 16.5412 18.225 17.6748L15.775 28.1498C13.025 39.9248 17.05 46.4248 28.825 49.2248L32.3775 50.0514Z" fill="#0E0F11"/>
<path d="M42.925 8.02478L38.75 7.04978C30.4 5.07478 25.425 6.69978 22.5 12.7498C21.75 14.2748 21.15 16.1248 20.65 18.2498L18.2 28.7248C15.75 39.1748 18.975 44.3248 29.4 46.7998L33.6 47.7998C35.05 48.1498 36.4 48.3748 37.65 48.4748C45.45 49.2248 49.6 45.5748 51.7 36.5498L54.15 26.0998C56.6 15.6498 53.4 10.4748 42.925 8.02478ZM38.225 33.3248C38 34.1748 37.25 34.7248 36.4 34.7248C36.25 34.7248 36.1 34.6998 35.925 34.6748L28.65 32.8248C27.65 32.5748 27.05 31.5498 27.3 30.5498C27.55 29.5498 28.575 28.9498 29.575 29.1998L36.85 31.0498C37.875 31.2998 38.475 32.3248 38.225 33.3248ZM45.55 24.8748C45.325 25.7248 44.575 26.2748 43.725 26.2748C43.575 26.2748 43.425 26.2498 43.25 26.2248L31.125 23.1498C30.125 22.8998 29.525 21.8748 29.775 20.8748C30.025 19.8748 31.05 19.2748 32.05 19.5248L44.175 22.5998C45.2 22.8248 45.8 23.8498 45.55 24.8748Z" fill="#0E0F11"/>
</svg>
