<svg width="240" height="352" viewBox="0 0 240 352" fill="none" xmlns="http://www.w3.org/2000/svg">
<mask id="mask0_1_3741" style="mask-type:alpha" maskUnits="userSpaceOnUse" x="-16" y="0" width="256" height="352">
<path d="M-16 352L240 352L240 0L-16 0L-16 352Z" fill="url(#paint0_linear_1_3741)"/>
</mask>
<g mask="url(#mask0_1_3741)">
<path d="M156.61 154.474V160.474H162.61H216.971C228.587 160.474 233.194 164.062 234.438 166.818C235.679 169.57 235.325 175.394 227.608 184.11L227.601 184.118L227.593 184.126L108.493 319.634L108.493 319.634L94.4233 335.644C89.8495 340.838 85.7876 344.02 82.4806 345.652C79.1992 347.271 77.1421 347.158 75.9445 346.708C74.7499 346.259 73.134 344.996 71.7416 341.625C70.3374 338.226 69.3896 333.16 69.3896 326.235V199.526V193.526H63.3896H9.02922C-2.58688 193.526 -7.19407 189.938 -8.43755 187.182C-9.67883 184.43 -9.32502 178.606 -1.60799 169.89L-1.60073 169.882L-1.5935 169.874L117.507 34.3658L117.507 34.3656L131.577 18.3556C131.577 18.3548 131.578 18.354 131.579 18.3532C136.152 13.161 140.213 9.9798 143.519 8.34846C146.801 6.72946 148.858 6.84252 150.055 7.29227C151.25 7.7409 152.866 9.00401 154.258 12.3747C155.663 15.7743 156.61 20.8403 156.61 27.765V154.474Z" stroke="#0065D1" stroke-width="12"/>
</g>
<defs>
<linearGradient id="paint0_linear_1_3741" x1="179.048" y1="262.324" x2="76.6116" y2="159.998" gradientUnits="userSpaceOnUse">
<stop stop-color="#176DE4" stop-opacity="0"/>
<stop offset="1" stop-color="#176DE4"/>
</linearGradient>
</defs>
</svg>
