<svg width="60" height="60" viewBox="0 0 60 60" fill="none" xmlns="http://www.w3.org/2000/svg">
<path d="M28.1248 20.2V27.3499L25.5998 26.4749C24.3248 26.0249 23.5498 25.5999 23.5498 23.4249C23.5498 21.65 24.8748 20.2 26.4998 20.2H28.1248V20.2Z" fill="currentcolor"/>
<path d="M36.45 36.5749C36.45 38.3499 35.125 39.7999 33.5 39.7999H31.875V32.6499L34.4 33.5249C35.675 33.9749 36.45 34.3999 36.45 36.5749Z" fill="currentcolor"/>
<path d="M40.475 5H19.525C10.425 5 5 10.425 5 19.525V40.475C5 49.575 10.425 55 19.525 55H40.475C49.575 55 55 49.575 55 40.475V19.525C55 10.425 49.575 5 40.475 5ZM35.65 30C37.6 30.675 40.2 32.1 40.2 36.575C40.2 40.425 37.2 43.55 33.5 43.55H31.875V45C31.875 46.025 31.025 46.875 30 46.875C28.975 46.875 28.125 46.025 28.125 45V43.55H27.225C23.125 43.55 19.8 40.075 19.8 35.825C19.8 34.8 20.625 33.95 21.675 33.95C22.7 33.95 23.55 34.8 23.55 35.825C23.55 38.025 25.2 39.8 27.225 39.8H28.125V31.325L24.35 30C22.4 29.325 19.8 27.9 19.8 23.425C19.8 19.575 22.8 16.45 26.5 16.45H28.125V15C28.125 13.975 28.975 13.125 30 13.125C31.025 13.125 31.875 13.975 31.875 15V16.45H32.775C36.875 16.45 40.2 19.925 40.2 24.175C40.2 25.2 39.375 26.05 38.325 26.05C37.3 26.05 36.45 25.2 36.45 24.175C36.45 21.975 34.8 20.2 32.775 20.2H31.875V28.675L35.65 30Z" fill="currentcolor"/>
</svg>
