<svg width="24" height="24" viewBox="0 0 24 24" fill="none" xmlns="http://www.w3.org/2000/svg">
<path d="M16.19 2H7.82001C4.18001 2 2.01001 4.17 2.01001 7.81V16.18C2.01001 19.82 4.18001 21.99 7.82001 21.99H16.19C19.83 21.99 22 19.82 22 16.18V7.81C22 4.17 19.83 2 16.19 2Z" fill="white"/>
<path d="M13.92 9.2802L13.97 12.2302L16.6 12.1902C16.644 12.1896 16.6875 12.1986 16.7276 12.2167C16.7677 12.2348 16.8033 12.2615 16.832 12.2949C16.8606 12.3283 16.8815 12.3676 16.8933 12.41C16.905 12.4524 16.9073 12.4968 16.9 12.5402L16.55 14.4502C16.5352 14.5176 16.499 14.5785 16.4467 14.6235C16.3944 14.6686 16.3289 14.6955 16.26 14.7002L14.01 14.7402L14.13 21.9902L11.13 22.0402L11.01 14.7902L9.30998 14.8202C9.23042 14.8202 9.15411 14.7886 9.09785 14.7323C9.04159 14.6761 9.00998 14.5998 9.00998 14.5202L8.97998 12.6202C8.97998 12.5406 9.01159 12.4643 9.06785 12.4081C9.12411 12.3518 9.20042 12.3202 9.27998 12.3202L10.98 12.2902L10.93 9.0402C10.9234 8.64622 10.9944 8.25479 11.1391 7.88828C11.2838 7.52176 11.4992 7.18734 11.7732 6.90411C12.0471 6.62088 12.3742 6.39439 12.7357 6.23758C13.0972 6.08077 13.486 5.99671 13.88 5.9902L16.58 5.9502C16.6595 5.9502 16.7359 5.9818 16.7921 6.03806C16.8484 6.09432 16.88 6.17063 16.88 6.2502L16.92 8.6502C16.92 8.72976 16.8884 8.80607 16.8321 8.86233C16.7759 8.91859 16.6995 8.9502 16.62 8.9502L14.22 8.9902C14.1809 8.98828 14.1419 8.99439 14.1053 9.00815C14.0687 9.02192 14.0353 9.04304 14.0072 9.07022C13.9791 9.0974 13.9568 9.13006 13.9418 9.16617C13.9268 9.20229 13.9194 9.24109 13.92 9.2802V9.2802Z" fill="#0E0F11"/>
</svg>
