<svg width="60" height="61" viewBox="0 0 60 61" fill="none" xmlns="http://www.w3.org/2000/svg">
<path opacity="0.2" d="M52.5 21.9501V39.0499C52.5 41.8499 51.014 44.45 48.6117 45.875L33.9007 54.45C31.4983 55.85 28.5264 55.85 26.0993 54.45L11.3883 45.875C8.98597 44.475 7.5 41.8749 7.5 39.0499V21.9501C7.5 19.1501 8.98597 16.55 11.3883 15.125L26.0993 6.55C28.5017 5.15 31.4736 5.15 33.9007 6.55L48.6117 15.125C51.014 16.55 52.5 19.1251 52.5 21.9501Z" fill="#0E0F11"/>
<mask id="mask0_146_2550" style="mask-type:alpha" maskUnits="userSpaceOnUse" x="7" y="5" width="46" height="51">
<path d="M52.5 21.9501V39.0499C52.5 41.8499 51.014 44.45 48.6117 45.875L33.9007 54.45C31.4983 55.85 28.5264 55.85 26.0993 54.45L11.3883 45.875C8.98597 44.475 7.5 41.8749 7.5 39.0499V21.9501C7.5 19.1501 8.98597 16.55 11.3883 15.125L26.0993 6.55C28.5017 5.15 31.4736 5.15 33.9007 6.55L48.6117 15.125C51.014 16.55 52.5 19.1251 52.5 21.9501Z" fill="#292D32"/>
</mask>
<g mask="url(#mask0_146_2550)">
<path fill-rule="evenodd" clip-rule="evenodd" d="M12.5 63V20.5C12.5 15.5 15.85 13 20 13H40C44.15 13 47.5 15.5 47.5 20.5V63H12.5ZM23.4751 32.9999H36.5501C39.1501 32.9999 41.2751 31.7499 41.2751 28.2749V25.1999C41.2501 21.7499 39.1251 20.4999 36.5251 20.4999H23.4501C20.8751 20.4999 18.7501 21.7499 18.7501 25.2249V28.2999C18.7501 31.7499 20.8751 32.9999 23.4751 32.9999ZM20.6251 42.3749H28.1251C29.1501 42.3749 30.0001 41.5249 30.0001 40.4999C30.0001 39.4749 29.1501 38.6249 28.1251 38.6249H20.6251C19.6001 38.6249 18.7501 39.4749 18.7501 40.4999C18.7501 41.5249 19.6001 42.3749 20.6251 42.3749Z" fill="#0E0F11"/>
</g>
<path d="M58.125 22.3702V37.3702C58.125 38.3952 57.3 39.2452 56.25 39.2452L47.5 39.2702V35.5202L54.375 35.4952V23.5202L50.4 21.5452C49.475 21.0952 49.1 19.9702 49.575 19.0202C50.025 18.0952 51.175 17.7452 52.1 18.1952L57.1 20.6952C57.725 21.0202 58.125 21.6702 58.125 22.3702Z" fill="#0E0F11"/>
</svg>
