<svg width="24" height="24" viewBox="0 0 24 24" fill="none" xmlns="http://www.w3.org/2000/svg">
<path d="M16.19 2H7.82001C4.18001 2 2.01001 4.17 2.01001 7.81V16.18C2.01001 19.82 4.18001 21.99 7.82001 21.99H16.19C19.83 21.99 22 19.82 22 16.18V7.81C22 4.17 19.83 2 16.19 2Z" fill="white"/>
<path d="M12.0005 20.036C9.80887 20.036 9.55281 20.0244 8.70193 19.9871C8.03629 19.9654 7.37926 19.8301 6.75922 19.587C6.22886 19.38 5.74721 19.0653 5.34471 18.6626C4.94222 18.26 4.62764 17.7782 4.42086 17.2477C4.18693 16.6255 4.06094 15.9679 4.04833 15.3033C3.99854 14.4515 3.99854 14.1723 3.99854 12.002C3.99854 9.80056 4.01009 9.54627 4.04833 8.7034C4.06137 8.03967 4.18735 7.38301 4.42086 6.76158C4.62717 6.23033 4.94188 5.74788 5.34494 5.34497C5.74799 4.94207 6.23056 4.62754 6.76189 4.42144C7.38306 4.18688 8.03985 4.06057 8.70371 4.04801C9.55281 4 9.8311 4 12.0005 4C14.2029 4 14.4563 4.01067 15.2956 4.04801C15.9623 4.06036 16.6221 4.18666 17.2463 4.42144C17.7773 4.62798 18.2595 4.94267 18.6623 5.34553C19.0652 5.74838 19.3799 6.23061 19.5864 6.76158C19.8242 7.39205 19.9509 8.05899 19.9607 8.73274C20.0105 9.58539 20.0105 9.86368 20.0105 12.0331C20.0105 14.2177 19.9981 14.4977 19.9607 15.329C19.9478 15.9943 19.8215 16.6525 19.5873 17.2753C19.3802 17.806 19.0652 18.2879 18.6622 18.6905C18.2593 19.0932 17.7771 19.4078 17.2463 19.6146C16.6242 19.8481 15.967 19.974 15.3027 19.9871C14.4536 20.036 14.1744 20.036 12.0005 20.036ZM11.9703 5.40746C9.79998 5.40746 9.5697 5.41813 8.72594 5.45636H8.7206C8.21373 5.46242 7.71171 5.55597 7.23668 5.73288C6.88973 5.86576 6.57447 6.06986 6.31122 6.33203C6.04798 6.59421 5.84259 6.90863 5.70829 7.25503C5.5304 7.73535 5.43686 8.24279 5.43178 8.75496C5.38466 9.61651 5.38466 9.84235 5.38466 12.002C5.38466 14.1448 5.39266 14.4026 5.43178 15.2508C5.43954 15.7578 5.53303 16.2598 5.70829 16.7356C5.84313 17.0816 6.04871 17.3956 6.3119 17.6576C6.57508 17.9196 6.89006 18.1237 7.23668 18.2569C7.71162 18.434 8.21373 18.5273 8.7206 18.5325C9.58126 18.5823 9.80798 18.5823 11.9703 18.5823C14.154 18.5823 14.3798 18.5716 15.2191 18.5325C15.7263 18.5272 16.2286 18.4339 16.7039 18.2569C17.0486 18.1224 17.3616 17.918 17.6233 17.6564C17.885 17.3949 18.0896 17.082 18.2243 16.7374C18.4016 16.2566 18.4952 15.749 18.5008 15.2366H18.5115C18.5488 14.3866 18.5488 14.1599 18.5488 11.9878C18.5488 9.79967 18.5391 9.57472 18.5008 8.73807C18.4931 8.23165 18.3996 7.7302 18.2243 7.25503C18.0902 6.90979 17.8858 6.5962 17.6241 6.33416C17.3624 6.07212 17.049 5.86736 16.7039 5.73288C16.2288 5.55519 15.7264 5.46162 15.2191 5.45636C14.3593 5.40746 14.1344 5.40746 11.9703 5.40746ZM12.0005 16.1088C11.1875 16.1093 10.3926 15.8687 9.7163 15.4174C9.04003 14.9661 8.51278 14.3244 8.20124 13.5735C7.8897 12.8225 7.80787 11.996 7.9661 11.1985C8.12432 10.401 8.5155 9.66838 9.09014 9.09324C9.66479 8.51809 10.3971 8.12628 11.1944 7.96737C11.9918 7.80845 12.8184 7.88957 13.5696 8.20045C14.3208 8.51134 14.963 9.03804 15.4149 9.71392C15.8668 10.3898 16.108 11.1845 16.1082 11.9976C16.1101 12.5377 16.0052 13.0728 15.7994 13.5723C15.5937 14.0717 15.2913 14.5255 14.9095 14.9076C14.5277 15.2897 14.0742 15.5925 13.575 15.7987C13.0757 16.0048 12.5407 16.1102 12.0005 16.1088V16.1088ZM12.0005 9.32844C11.473 9.32844 10.9573 9.48488 10.5186 9.77797C10.08 10.0711 9.73812 10.4876 9.53624 10.975C9.33435 11.4624 9.28153 11.9987 9.38445 12.5161C9.48737 13.0336 9.74141 13.5088 10.1144 13.8819C10.4875 14.2549 10.9627 14.5089 11.4802 14.6119C11.9976 14.7148 12.5339 14.662 13.0213 14.4601C13.5087 14.2582 13.9252 13.9163 14.2183 13.4777C14.5114 13.039 14.6679 12.5233 14.6679 11.9958C14.6679 11.2884 14.3868 10.6099 13.8866 10.1097C13.3864 9.60946 12.708 9.32844 12.0005 9.32844V9.32844ZM16.2683 8.6945C16.0462 8.69396 15.8312 8.61646 15.6598 8.4752C15.4885 8.33394 15.3714 8.13766 15.3285 7.91977C15.2856 7.70188 15.3195 7.47586 15.4245 7.28018C15.5295 7.08451 15.6991 6.93128 15.9044 6.8466C16.1097 6.76191 16.338 6.75099 16.5504 6.81571C16.7629 6.88042 16.9463 7.01677 17.0695 7.20153C17.1927 7.38629 17.2481 7.60804 17.2262 7.82903C17.2043 8.05002 17.1064 8.25658 16.9493 8.41355C16.8599 8.50291 16.7537 8.57373 16.6368 8.62194C16.5199 8.67015 16.3947 8.69481 16.2683 8.6945V8.6945Z" fill="#0E0F11"/>
</svg>
