<svg width="120" height="72" viewBox="0 0 120 72" fill="none" xmlns="http://www.w3.org/2000/svg">
<path d="M15.528 33.0004C14.616 33.0004 13.86 32.7004 13.26 32.1004C12.66 31.5004 12.36 30.7564 12.36 29.8684C12.36 29.6284 12.372 29.4364 12.396 29.2924L15.132 12.1924C15.3 11.1604 15.792 10.2844 16.608 9.56438C17.448 8.84438 18.384 8.48438 19.416 8.48438H33.636C34.548 8.48438 35.304 8.78438 35.904 9.38438C36.504 9.98438 36.804 10.7284 36.804 11.6164C36.804 11.8564 36.792 12.0484 36.768 12.1924L35.9217 17.482C35.8445 17.9643 35.8059 18.2055 35.6377 18.3489C35.4694 18.4924 35.2252 18.4924 34.7367 18.4924H27.6937C27.0423 18.4924 26.7166 18.4924 26.537 18.2826C26.3574 18.0728 26.4076 17.751 26.508 17.1075L26.688 15.9533C26.7884 15.3097 26.8385 14.988 26.6589 14.7782C26.4793 14.5684 26.1537 14.5684 25.5023 14.5684H25.2298C24.7402 14.5684 24.4954 14.5684 24.327 14.7123C24.1587 14.8563 24.1206 15.0981 24.0444 15.5818L22.4783 25.5298C22.3769 26.174 22.3261 26.4961 22.5058 26.7063C22.6854 26.9164 23.0115 26.9164 23.6637 26.9164H23.9404C24.4272 26.9164 24.6707 26.9164 24.8387 26.7736C25.0067 26.6309 25.046 26.3906 25.1246 25.9102L25.4433 23.9626C25.522 23.4821 25.5613 23.2419 25.7293 23.0991C25.8973 22.9564 26.1407 22.9564 26.6276 22.9564H33.6621C34.3185 22.9564 34.6468 22.9564 34.8265 23.1681C35.0062 23.3799 34.9528 23.7037 34.8461 24.3515L34.032 29.2924C33.864 30.3244 33.36 31.2004 32.52 31.9204C31.704 32.6404 30.78 33.0004 29.748 33.0004H15.528Z" fill="#F1F7FD"/>
<path d="M36.0118 27.2519C36.0384 27.0852 36.0518 27.0019 36.0868 26.9263C36.1219 26.8507 36.1769 26.7867 36.287 26.6588L44.9804 16.5509C45.716 15.6955 46.0838 15.2679 45.9233 14.9181C45.7628 14.5684 45.1987 14.5684 44.0706 14.5684H39.4164C38.7628 14.5684 38.436 14.5684 38.2564 14.3577C38.0767 14.1471 38.1283 13.8244 38.2314 13.1791L38.82 9.49506C38.897 9.0126 38.9356 8.77136 39.1038 8.62787C39.2721 8.48438 39.5163 8.48438 40.0049 8.48438H56.9425C57.596 8.48438 57.9228 8.48438 58.1025 8.69501C58.2821 8.90565 58.2306 9.22833 58.1275 9.87369L57.4309 14.2339C57.4043 14.4001 57.391 14.4832 57.3561 14.5585C57.3213 14.6339 57.2665 14.6978 57.157 14.8255L48.4914 24.9354C47.7586 25.7903 47.3922 26.2178 47.5528 26.5671C47.7135 26.9164 48.2765 26.9164 49.4025 26.9164H54.0265C54.68 26.9164 55.0068 26.9164 55.1865 27.127C55.3661 27.3377 55.3146 27.6603 55.2115 28.3057L54.6229 31.9897C54.5458 32.4722 54.5073 32.7134 54.339 32.8569C54.1708 33.0004 53.9265 33.0004 53.4379 33.0004H36.5004C35.8468 33.0004 35.52 33.0004 35.3404 32.7897C35.1607 32.5791 35.2123 32.2564 35.3154 31.6111L36.0118 27.2519Z" fill="#F1F7FD"/>
<path d="M62.055 9.34157C62.1781 8.92869 62.2396 8.72225 62.3992 8.60331C62.5588 8.48438 62.7742 8.48438 63.205 8.48438H77.2496C77.826 8.48438 78.1142 8.48438 78.2907 8.66449C78.4671 8.84461 78.4612 9.13275 78.4494 9.70904L77.9947 31.825C77.9833 32.3801 77.9776 32.6576 77.8026 32.829C77.6277 33.0004 77.3501 33.0004 76.795 33.0004H69.7886C69.1861 33.0004 68.8848 33.0004 68.7069 32.8097C68.529 32.619 68.5498 32.3185 68.5915 31.7174L68.6656 30.6473C68.7073 30.0463 68.7281 29.7457 68.5502 29.555C68.3723 29.3644 68.071 29.3644 67.4685 29.3644H66.3368C65.8898 29.3644 65.6663 29.3644 65.5041 29.4902C65.3418 29.616 65.2861 29.8324 65.1747 30.2652L64.7024 32.0995C64.591 32.5324 64.5353 32.7488 64.373 32.8746C64.2108 33.0004 63.9873 33.0004 63.5403 33.0004H56.6124C55.8751 33.0004 55.5064 33.0004 55.3264 32.759C55.1465 32.5175 55.2518 32.1642 55.4624 31.4576L62.055 9.34157ZM69.4385 18.6364C69.5572 17.1734 69.6758 15.9954 69.7944 15.1024C69.8318 14.8211 69.6146 14.5684 69.3308 14.5684C69.1027 14.5684 68.9088 14.7347 68.872 14.9598C68.6469 16.3358 68.3918 17.5613 68.1065 18.6364L67.157 22.5161C67.0396 22.9955 66.981 23.2352 67.0587 23.4185C67.1002 23.5165 67.1671 23.6017 67.2524 23.6653C67.412 23.7844 67.6588 23.7844 68.1523 23.7844C68.5275 23.7844 68.7151 23.7844 68.8564 23.7009C68.9325 23.6559 68.9978 23.5946 69.0475 23.5215C69.1396 23.3858 69.1514 23.1985 69.175 22.824L69.4385 18.6364Z" fill="#F1F7FD"/>
<path d="M100.327 8.48438C101.239 8.48438 101.995 8.78438 102.595 9.38438C103.195 9.98438 103.495 10.7284 103.495 11.6164C103.495 11.8564 103.483 12.0484 103.459 12.1924L102.271 19.7164C102.103 20.7484 101.599 21.6244 100.759 22.3444C100.03 22.97 99.2272 23.3238 98.3524 23.4058C98.1224 23.4274 97.9255 23.5929 97.8903 23.8212C97.8467 24.1047 98.0688 24.3556 98.3488 24.4174C98.7238 24.5002 99.0593 24.6732 99.3554 24.9364C99.8114 25.2964 100.087 25.7764 100.183 26.3764L100.954 31.6262C101.048 32.2653 101.094 32.5849 100.915 32.7926C100.735 33.0004 100.412 33.0004 99.7665 33.0004H92.5038C91.9954 33.0004 91.7412 33.0004 91.5706 32.8485C91.4 32.6966 91.3707 32.4441 91.3119 31.9391L90.5314 25.2327C90.5255 25.1823 90.5226 25.1571 90.5184 25.1354C90.4673 24.8689 90.2438 24.67 89.9733 24.65C89.9513 24.6484 89.9259 24.6484 89.8751 24.6484C89.8262 24.6484 89.8018 24.6484 89.7804 24.6499C89.5183 24.6687 89.2989 24.8559 89.239 25.1118C89.2342 25.1327 89.2303 25.1568 89.2226 25.205L88.1406 31.9894C88.0637 32.472 88.0252 32.7133 87.8569 32.8568C87.6887 33.0004 87.4443 33.0004 86.9556 33.0004H79.9167C79.2638 33.0004 78.9374 33.0004 78.7578 32.79C78.5781 32.5796 78.6292 32.2572 78.7315 31.6124L82.2389 9.49641C82.3155 9.01334 82.3538 8.77181 82.5221 8.62809C82.6904 8.48438 82.935 8.48438 83.4241 8.48438H100.327ZM91.9914 18.2764C92.482 18.2764 92.7273 18.2764 92.8957 18.132C93.0642 17.9877 93.1019 17.7453 93.1772 17.2606L93.3804 15.9526C93.4803 15.3093 93.5303 14.9877 93.3507 14.778C93.1711 14.5684 92.8456 14.5684 92.1946 14.5684H91.9234C91.4328 14.5684 91.1875 14.5684 91.019 14.7127C90.8506 14.857 90.8129 15.0994 90.7376 15.5842L90.5344 16.8922C90.4345 17.5354 90.3845 17.8571 90.5641 18.0667C90.7437 18.2764 91.0692 18.2764 91.7202 18.2764H91.9914Z" fill="#F1F7FD"/>
<g opacity="0.6">
<path d="M63.6359 38.4844C64.5479 38.4844 65.3039 38.7844 65.9039 39.3844C66.5039 39.9844 66.8039 40.7284 66.8039 41.6164C66.8039 41.8564 66.7919 42.0484 66.7679 42.1924L65.3639 50.9404C65.1959 51.9724 64.6919 52.8604 63.8519 53.6044C63.0359 54.3244 62.1119 54.6844 61.0799 54.6844H53.643C53.1546 54.6844 52.9104 54.6844 52.7422 54.8278C52.574 54.9712 52.5354 55.2123 52.4581 55.6946L51.4497 61.9902C51.3725 62.4724 51.3339 62.7135 51.1657 62.857C50.9974 63.0004 50.7532 63.0004 50.2649 63.0004H43.2252C42.5724 63.0004 42.246 63.0004 42.0663 62.79C41.8867 62.5796 41.9378 62.2572 42.0401 61.6124L45.5474 39.4964C45.624 39.0133 45.6624 38.7718 45.8307 38.6281C45.999 38.4844 46.2435 38.4844 46.7326 38.4844H63.6359ZM55.2334 48.6004C55.7216 48.6004 55.9656 48.6004 56.1338 48.4571C56.302 48.3137 56.3407 48.0728 56.4182 47.5908L56.6805 45.9588C56.7843 45.313 56.8362 44.9901 56.6565 44.7792C56.4768 44.5684 56.1498 44.5684 55.4957 44.5684H55.2355C54.7434 44.5684 54.4973 44.5684 54.3286 44.7134C54.1599 44.8584 54.123 45.1017 54.0491 45.5883L53.8014 47.2203C53.704 47.8619 53.6553 48.1827 53.8349 48.3915C54.0145 48.6004 54.3389 48.6004 54.9878 48.6004H55.2334Z" fill="#F1F7FD"/>
<path d="M68.7311 63.0004C67.8191 63.0004 67.0631 62.7004 66.4631 62.1004C65.8631 61.5004 65.5631 60.7564 65.5631 59.8684C65.5631 59.6284 65.5751 59.4364 65.5991 59.2924L68.3351 42.1924C68.5031 41.1604 68.9951 40.2844 69.8111 39.5644C70.6511 38.8444 71.5871 38.4844 72.6191 38.4844H86.8391C87.7511 38.4844 88.5071 38.7844 89.1071 39.3844C89.7071 39.9844 90.0071 40.7284 90.0071 41.6164C90.0071 41.8564 89.9951 42.0484 89.9711 42.1924L89.1247 47.482C89.0476 47.9643 89.009 48.2055 88.8407 48.3489C88.6725 48.4924 88.4283 48.4924 87.9398 48.4924H80.8967C80.2454 48.4924 79.9197 48.4924 79.7401 48.2826C79.5605 48.0728 79.6107 47.751 79.7111 47.1075L79.8911 45.9533C79.9914 45.3097 80.0416 44.988 79.862 44.7782C79.6824 44.5684 79.3567 44.5684 78.7054 44.5684H78.4329C77.9433 44.5684 77.6985 44.5684 77.5301 44.7123C77.3617 44.8562 77.3237 45.0981 77.2475 45.5818L75.6814 55.5298C75.5799 56.174 75.5292 56.4961 75.7089 56.7063C75.8885 56.9164 76.2146 56.9164 76.8668 56.9164H77.1435C77.6303 56.9164 77.8738 56.9164 78.0418 56.7736C78.2098 56.6309 78.2491 56.3906 78.3277 55.9102L78.6464 53.9626C78.725 53.4821 78.7643 53.2419 78.9324 53.0991C79.1004 52.9564 79.3438 52.9564 79.8307 52.9564H86.8652C87.5216 52.9564 87.8499 52.9564 88.0296 53.1681C88.2093 53.3799 88.1559 53.7037 88.0492 54.3515L87.2351 59.2924C87.0671 60.3244 86.5631 61.2004 85.7231 61.9204C84.9071 62.6404 83.9831 63.0004 82.9511 63.0004H68.7311Z" fill="#F1F7FD"/>
<path d="M92.0045 63.0004C91.0925 63.0004 90.3365 62.7004 89.7365 62.1004C89.1365 61.5004 88.8365 60.7564 88.8365 59.8684C88.8365 59.6284 88.8485 59.4364 88.8725 59.2924L91.6085 42.1924C91.7765 41.1604 92.2685 40.2844 93.0845 39.5644C93.9245 38.8444 94.8605 38.4844 95.8925 38.4844H110.113C111.025 38.4844 111.781 38.7844 112.381 39.3844C112.98 39.9844 113.281 40.7284 113.281 41.6164C113.281 41.8564 113.269 42.0484 113.245 42.1924L110.508 59.2924C110.34 60.3244 109.837 61.2004 108.997 61.9204C108.181 62.6404 107.257 63.0004 106.225 63.0004H92.0045ZM100.411 56.9164C100.9 56.9164 101.145 56.9164 101.313 56.7724C101.482 56.6285 101.52 56.3867 101.596 55.903L103.162 45.955C103.264 45.3107 103.314 44.9886 103.135 44.7785C102.955 44.5684 102.629 44.5684 101.977 44.5684H101.706C101.217 44.5684 100.972 44.5684 100.804 44.7123C100.635 44.8562 100.597 45.0981 100.521 45.5818L98.9548 55.5298C98.8534 56.174 98.8027 56.4961 98.9823 56.7063C99.1619 56.9164 99.488 56.9164 100.14 56.9164H100.411Z" fill="#F1F7FD"/>
</g>
<path opacity="0.6" fill-rule="evenodd" clip-rule="evenodd" d="M28.5002 42H19.5003C18.6625 42 18.2435 42 17.8845 42.1157C17.2414 42.323 16.6775 42.7887 16.3525 43.3811C16.171 43.7118 16.0918 44.1232 15.9335 44.946C15.7753 45.7688 15.6961 46.1801 15.7503 46.5109C15.8474 47.1032 16.2321 47.569 16.7955 47.7762C17.11 47.892 17.5289 47.892 18.3668 47.892H23.1666C25.1465 47.892 26.1365 47.892 26.6353 48.4959C27.1342 49.0999 26.9472 50.0721 26.5731 52.0163L25.6663 56.7299C25.508 57.5527 25.4289 57.964 25.4831 58.2948C25.5802 58.8871 25.9649 59.3529 26.5282 59.5601C26.8427 59.6759 27.2617 59.6759 28.0995 59.6759C28.9374 59.6759 29.3563 59.6759 29.7154 59.5601C30.3585 59.3529 30.9224 58.8871 31.2474 58.2948C31.4289 57.964 31.508 57.5527 31.6663 56.7299L33.3666 47.892C33.3666 47.892 33.3667 47.892 33.3667 47.892C33.3667 47.892 33.3668 47.8919 33.3668 47.8919L34.5003 42.0002C34.5003 42.0001 34.5002 42 34.5002 42H28.5002ZM13.6661 56.7299C13.8244 55.9071 13.9036 55.4958 14.085 55.165C14.4101 54.5727 14.974 54.107 15.6171 53.8997C15.9761 53.784 16.395 53.784 17.2329 53.784C18.0708 53.784 18.4897 53.784 18.8042 53.8997C19.3676 54.107 19.7522 54.5727 19.8494 55.165C19.9036 55.4958 19.8244 55.9071 19.6661 56.7299C19.5078 57.5527 19.4287 57.9641 19.2472 58.2948C18.9222 58.8872 18.3583 59.3529 17.7152 59.5602C17.3562 59.6759 16.9372 59.6759 16.0994 59.6759C15.2615 59.6759 14.8426 59.6759 14.528 59.5602C13.9647 59.3529 13.58 58.8872 13.4829 58.2948C13.4287 57.9641 13.5078 57.5527 13.6661 56.7299Z" fill="#F1F7FD"/>
</svg>
