<svg width="408" height="180" viewBox="0 0 408 180" fill="none" xmlns="http://www.w3.org/2000/svg">
<g clip-path="url(#clip0_374_27948)">
<path d="M2.43359 164.444C2.43359 156.144 92.5806 149.42 203.775 149.42C314.969 149.42 405.123 156.147 405.123 164.444C405.123 172.741 314.978 179.466 203.778 179.466C92.5776 179.466 2.43359 172.739 2.43359 164.444Z" fill="#C9E0F7"/>
<path d="M352.032 166.184C350.375 166.184 349.032 164.841 349.032 163.184V142.218C349.032 140.561 347.689 139.218 346.032 139.218H275.709C274.052 139.218 272.709 137.875 272.709 136.218V99.1943C272.709 98.7552 272.805 98.3215 272.991 97.9238L316.923 3.95116C317.417 2.89595 318.476 2.22168 319.641 2.22168H390.092C391.749 2.22168 393.092 3.56483 393.092 5.22168V95.5277C393.092 97.1845 394.435 98.5277 396.092 98.5277H404.056C405.713 98.5277 407.056 99.8708 407.056 101.528V136.218C407.056 137.875 405.713 139.218 404.056 139.218H396.092C394.435 139.218 393.092 140.561 393.092 142.218V163.184C393.092 164.841 391.749 166.184 390.092 166.184H352.032ZM318.767 94.2571C317.837 96.2462 319.288 98.5277 321.484 98.5277H346.032C347.689 98.5277 349.032 97.1845 349.032 95.5277V45.9117C349.032 44.2548 347.689 42.9117 346.032 42.9117H344.681C343.516 42.9117 342.457 43.5859 341.963 44.6411L318.767 94.2571ZM79.8219 166.184C78.1651 166.184 76.8219 164.841 76.8219 163.184V142.218C76.8219 140.561 75.4788 139.218 73.8219 139.218H3.50195C1.8451 139.218 0.501953 137.875 0.501953 136.218V99.1943C0.501953 98.7552 0.598319 98.3215 0.78425 97.9238L44.7144 3.95122C45.2077 2.89598 46.2673 2.22168 47.4321 2.22168H117.883C119.54 2.22168 120.883 3.56483 120.883 5.22168V95.5277C120.883 97.1845 122.226 98.5277 123.883 98.5277H131.847C133.504 98.5277 134.847 99.8708 134.847 101.528V136.218C134.847 137.875 133.504 139.218 131.847 139.218H123.883C122.226 139.218 120.883 140.561 120.883 142.218V163.184C120.883 164.841 119.54 166.184 117.883 166.184H79.8219ZM46.5567 94.2571C45.6267 96.2462 47.0785 98.5277 49.2743 98.5277H73.8219C75.4788 98.5277 76.8219 97.1845 76.8219 95.5277V45.9117C76.8219 44.2548 75.4788 42.9117 73.8219 42.9117H72.472C71.3072 42.9117 70.2477 43.5859 69.7544 44.6411L46.5567 94.2571Z" fill="#0e0f11"/>
<g clip-path="url(#clip1_374_27948)">
<path d="M283.305 162.72C320.447 125.578 320.447 65.3595 283.305 28.2179C246.164 -8.92365 185.945 -8.92365 148.804 28.2179C111.662 65.3595 111.662 125.578 148.804 162.72C185.945 199.861 246.164 199.861 283.305 162.72Z" fill="#5D5D5D"/>
<path d="M136.956 95.4687C136.956 79.8242 141.595 64.531 150.287 51.5231C158.978 38.5152 171.332 28.3767 185.786 22.3898C200.239 16.4029 216.144 14.8365 231.488 17.8886C246.832 20.9407 260.926 28.4742 271.988 39.5366C283.051 50.5989 290.584 64.6931 293.636 80.037C296.688 95.3809 295.122 111.285 289.135 125.739C283.148 140.193 273.01 152.546 260.002 161.238C246.994 169.93 231.701 174.569 216.056 174.569C205.669 174.569 195.383 172.523 185.786 168.548C176.189 164.572 167.469 158.746 160.124 151.401C152.779 144.056 146.952 135.336 142.977 125.739C139.002 116.142 136.956 105.856 136.956 95.4687V95.4687Z" fill="#4A4A4A"/>
<path d="M216.055 163.006C202.697 163.006 189.64 159.045 178.534 151.624C167.428 144.203 158.772 133.655 153.66 121.315C148.549 108.974 147.211 95.3948 149.817 82.2942C152.423 69.1936 158.855 57.16 168.3 47.715C177.745 38.2699 189.779 31.8378 202.88 29.2318C215.98 26.6259 229.559 27.9633 241.9 33.0748C254.241 38.1863 264.788 46.8424 272.209 57.9485C279.63 69.0546 283.591 82.1118 283.592 95.4691C283.572 113.375 276.45 130.542 263.789 143.203C251.127 155.864 233.96 162.986 216.055 163.006ZM216.055 29.1161C202.931 29.1167 190.102 33.0088 179.191 40.3003C168.279 47.5918 159.775 57.9551 154.753 70.0798C149.732 82.2046 148.418 95.5461 150.979 108.417C153.54 121.289 159.86 133.111 169.14 142.391C178.42 151.67 190.243 157.99 203.114 160.549C215.986 163.109 229.327 161.795 241.452 156.773C253.576 151.75 263.939 143.245 271.23 132.333C278.52 121.421 282.412 108.593 282.412 95.4691C282.391 77.8769 275.393 61.0113 262.953 48.5723C250.513 36.1333 233.647 29.1369 216.055 29.1181V29.1161Z" fill="#767676"/>
<path d="M216.054 162.24C202.849 162.24 189.94 158.323 178.96 150.986C167.981 143.649 159.423 133.221 154.37 121.021C149.317 108.821 147.995 95.3958 150.571 82.4441C153.148 69.4924 159.507 57.5956 168.845 48.258C178.182 38.9204 190.079 32.5614 203.031 29.9851C215.983 27.4089 229.407 28.731 241.608 33.7844C253.808 38.8378 264.236 47.3954 271.573 58.3752C278.91 69.355 282.826 82.2637 282.826 95.4692C282.806 113.172 275.765 130.144 263.247 142.662C250.729 155.18 233.757 162.221 216.054 162.24ZM216.054 29.2932C202.965 29.2936 190.171 33.1752 179.288 40.4473C168.405 47.7194 159.923 58.0552 154.915 70.1478C149.906 82.2404 148.596 95.5466 151.15 108.384C153.704 121.221 160.007 133.013 169.263 142.268C178.518 151.522 190.31 157.825 203.147 160.378C215.985 162.931 229.291 161.62 241.383 156.611C253.475 151.602 263.811 143.119 271.082 132.236C278.354 121.353 282.235 108.558 282.234 95.4692C282.214 77.9238 275.235 61.1029 262.828 48.6968C250.421 36.2907 233.6 29.3125 216.054 29.2932Z" fill="#3F3F3F"/>
<path d="M216.054 180.578C199.222 180.577 182.768 175.586 168.772 166.234C154.777 156.882 143.869 143.59 137.427 128.039C130.986 112.488 129.301 95.3757 132.585 78.8668C135.869 62.3578 143.974 47.1934 155.877 35.2911C167.779 23.3888 182.943 15.2831 199.452 11.9992C215.961 8.71527 233.073 10.4005 248.624 16.8418C264.176 23.2831 277.467 34.1912 286.819 48.1866C296.171 62.1821 301.163 78.6364 301.163 95.4688C301.139 118.034 292.165 139.668 276.209 155.623C260.253 171.579 238.619 180.554 216.054 180.578ZM216.054 11.5428C199.455 11.5432 183.229 16.4658 169.427 25.6881C155.626 34.9104 144.869 48.0182 138.517 63.354C132.165 78.6897 130.504 95.5646 133.742 111.845C136.981 128.125 144.974 143.079 156.712 154.816C168.45 166.553 183.404 174.546 199.684 177.784C215.965 181.023 232.839 179.36 248.175 173.008C263.51 166.655 276.618 155.898 285.84 142.096C295.061 128.294 299.983 112.068 299.983 95.4688C299.958 73.2176 291.107 51.8852 275.372 36.1515C259.638 20.4178 238.305 11.5677 216.054 11.5428V11.5428Z" fill="#767676"/>
<path d="M216.054 179.689C199.397 179.689 183.115 174.75 169.265 165.496C155.416 156.242 144.621 143.089 138.247 127.7C131.873 112.312 130.205 95.3782 133.454 79.0416C136.703 62.705 144.724 47.6987 156.502 35.9206C168.28 24.1424 183.286 16.1212 199.623 12.8714C215.959 9.62164 232.893 11.2892 248.281 17.6631C263.67 24.0371 276.823 34.8312 286.078 48.6805C295.332 62.5298 300.272 78.8123 300.272 95.469C300.247 117.797 291.366 139.204 275.577 154.993C259.789 170.782 238.382 179.663 216.054 179.689V179.689ZM216.054 11.846C199.514 11.8456 183.346 16.7498 169.594 25.9385C155.841 35.1272 145.123 48.1876 138.793 63.4681C132.463 78.7487 130.807 95.5631 134.034 111.785C137.26 128.007 145.225 142.907 156.92 154.603C168.615 166.298 183.516 174.263 199.738 177.489C215.96 180.716 232.774 179.06 248.055 172.73C263.335 166.4 276.396 155.682 285.584 141.929C294.773 128.177 299.677 112.009 299.677 95.469C299.652 73.2986 290.833 52.0435 275.156 36.3666C259.479 20.6898 238.224 11.8714 216.054 11.846V11.846Z" fill="#3F3F3F"/>
<path d="M266.13 165.802L264.878 177.057C265.442 176.72 266.002 176.375 266.557 176.03L266.906 165.356L266.13 165.802Z" fill="#4A4A4A"/>
<path d="M276.816 156.256L277.58 167.956C279.008 166.741 280.408 165.474 281.78 164.156L279.345 153.718L276.816 156.256Z" fill="#4A4A4A"/>
<path d="M282.627 150.446L284.327 161.646C284.783 161.173 285.236 160.698 285.68 160.217L283.255 149.817L282.627 150.446Z" fill="#4A4A4A"/>
<path d="M290.478 138.458L294.243 149.567C295.309 148.023 296.336 146.437 297.322 144.81L292.268 135.358L290.478 138.458Z" fill="#4A4A4A"/>
<path d="M294.588 131.342L299.129 141.715C299.448 141.143 299.761 140.566 300.067 139.985L295.032 130.569L294.588 131.342Z" fill="#4A4A4A"/>
<path d="M299.068 117.73L305.58 127.486C306.212 125.718 306.793 123.92 307.323 122.092L299.994 114.273L299.068 117.73Z" fill="#4A4A4A"/>
<path d="M301.194 109.795L308.265 118.638C308.426 118.001 308.58 117.364 308.724 116.723L301.424 108.932L301.194 109.795Z" fill="#4A4A4A"/>
<path d="M301.999 95.4863L310.816 103.222C310.967 101.352 311.063 99.4656 311.103 97.5643L302.003 91.9053L301.999 95.4863Z" fill="#4A4A4A"/>
<path d="M301.999 87.2695L311.119 93.9825C311.108 93.3265 311.092 92.6675 311.066 92.0145L301.998 86.3774L301.999 87.2695Z" fill="#4A4A4A"/>
<path d="M299.077 73.2407L309.596 78.4327C309.257 76.5867 308.861 74.7397 308.409 72.8917L298.152 69.7827L299.077 73.2407Z" fill="#4A4A4A"/>
<path d="M296.947 65.3029L307.493 69.4279C307.315 68.7969 307.128 68.1659 306.932 67.5409L296.715 64.4409L296.947 65.3029Z" fill="#4A4A4A"/>
<path d="M290.492 52.5086L301.992 54.8016C301.187 53.1076 300.327 51.427 299.412 49.7596L288.7 49.4106L290.492 52.5086Z" fill="#4A4A4A"/>
<path d="M286.378 45.3935L297.633 46.6495C297.299 46.0855 296.956 45.5252 296.603 44.9685L285.932 44.6235L286.378 45.3935Z" fill="#4A4A4A"/>
<path d="M276.835 34.7076L288.542 33.9456C287.326 32.5156 286.059 31.1156 284.742 29.7456L274.303 32.1806L276.835 34.7076Z" fill="#4A4A4A"/>
<path d="M271.026 28.8968L282.22 27.1968C281.752 26.7378 281.274 26.2858 280.792 25.8398L270.392 28.2658L271.026 28.8968Z" fill="#4A4A4A"/>
<path d="M259.036 21.0446L270.147 17.2806C268.601 16.214 267.015 15.188 265.388 14.2026L255.938 19.2566L259.036 21.0446Z" fill="#4A4A4A"/>
<path d="M251.921 16.9375L262.296 12.3975C261.721 12.0775 261.144 11.7642 260.564 11.4575L251.148 16.4915L251.921 16.9375Z" fill="#4A4A4A"/>
<path d="M238.308 12.4576L248.067 5.94464C246.297 5.31397 244.499 4.7333 242.674 4.20264L234.852 11.5286L238.308 12.4576Z" fill="#4A4A4A"/>
<path d="M230.378 10.3278L239.222 3.26077C238.589 3.09977 237.948 2.94678 237.308 2.80078L229.517 10.1008L230.378 10.3278Z" fill="#4A4A4A"/>
<path d="M216.064 9.52589L223.803 0.708893C221.931 0.556893 220.044 0.460898 218.144 0.420898L212.483 9.5209L216.064 9.52589Z" fill="#4A4A4A"/>
<path d="M207.848 9.52368L214.561 0.408691C213.906 0.415691 213.249 0.433687 212.592 0.457687L206.955 9.52568L207.848 9.52368Z" fill="#4A4A4A"/>
<path d="M193.818 12.4516L199.013 1.93164C197.166 2.27164 195.321 2.66364 193.472 3.11964L190.362 13.3776L193.818 12.4516Z" fill="#4A4A4A"/>
<path d="M185.878 14.5777L190.002 4.03174C189.372 4.20874 188.743 4.39774 188.115 4.59174L185.015 14.8077L185.878 14.5777Z" fill="#4A4A4A"/>
<path d="M173.088 21.0347L175.383 9.53467C173.687 10.3387 172.006 11.1987 170.34 12.1147L169.99 22.8287L173.088 21.0347Z" fill="#4A4A4A"/>
<path d="M165.977 25.1407L167.233 13.8887C166.668 14.222 166.108 14.565 165.553 14.9177L165.205 25.5877L165.977 25.1407Z" fill="#4A4A4A"/>
<path d="M155.288 34.6888L154.525 22.9888C153.093 24.2028 151.693 25.4694 150.325 26.7888L152.755 37.2278L155.288 34.6888Z" fill="#4A4A4A"/>
<path d="M149.477 40.4997L147.777 29.3057C147.318 29.7777 146.87 30.2517 146.421 30.7347L148.846 41.1347L149.477 40.4997Z" fill="#4A4A4A"/>
<path d="M141.626 52.4909L137.862 41.3779C136.793 42.9239 135.768 44.5049 134.784 46.1349L139.835 55.5879L141.626 52.4909Z" fill="#4A4A4A"/>
<path d="M137.518 59.604L132.977 49.231C132.655 49.803 132.343 50.381 132.036 50.961L137.071 60.377L137.518 59.604Z" fill="#4A4A4A"/>
<path d="M133.038 73.2179L126.525 63.4619C125.893 65.2286 125.312 67.0252 124.783 68.8519L132.11 76.6749L133.038 73.2179Z" fill="#4A4A4A"/>
<path d="M130.911 81.1511L123.84 72.3091C123.679 72.9451 123.528 73.5821 123.381 74.2231L130.677 82.0181L130.911 81.1511Z" fill="#4A4A4A"/>
<path d="M130.107 95.4607L121.291 87.7227C121.136 89.5927 121.039 91.4773 121.002 93.3767L130.102 99.0397L130.107 95.4607Z" fill="#4A4A4A"/>
<path d="M130.106 103.675L120.986 96.9619C120.995 97.6199 121.015 98.2759 121.037 98.9299L130.104 104.57L130.106 103.675Z" fill="#4A4A4A"/>
<path d="M133.033 117.707L122.513 112.507C122.846 114.355 123.242 116.202 123.7 118.048L133.958 121.162L133.033 117.707Z" fill="#4A4A4A"/>
<path d="M135.157 125.641L124.613 121.518C124.792 122.15 124.98 122.777 125.17 123.407L135.385 126.507L135.157 125.641Z" fill="#4A4A4A"/>
<path d="M141.615 138.437L130.108 136.137C130.912 137.833 131.772 139.513 132.688 141.179L143.401 141.532L141.615 138.437Z" fill="#4A4A4A"/>
<path d="M145.723 145.55L134.468 144.296C134.805 144.86 135.152 145.417 135.498 145.977L146.168 146.325L145.723 145.55Z" fill="#4A4A4A"/>
<path d="M155.271 156.237L143.562 156.996C144.779 158.426 146.046 159.828 147.363 161.202L157.802 158.77L155.271 156.237Z" fill="#4A4A4A"/>
<path d="M161.078 162.047L149.878 163.747C150.351 164.207 150.83 164.654 151.309 165.103L161.709 162.681L161.078 162.047Z" fill="#4A4A4A"/>
<path d="M151.062 95.4691C151.062 82.6147 154.874 70.0491 162.015 59.3612C169.157 48.6733 179.308 40.3431 191.183 35.4241C203.059 30.5051 216.127 29.2181 228.735 31.726C241.342 34.2339 252.923 40.424 262.012 49.5134C271.101 58.6029 277.291 70.1836 279.799 82.7909C282.306 95.3983 281.019 108.466 276.1 120.342C271.181 132.218 262.851 142.368 252.163 149.51C241.475 156.651 228.909 160.463 216.055 160.463C198.818 160.461 182.287 153.613 170.099 141.425C157.911 129.236 151.063 112.706 151.062 95.4691V95.4691Z" fill="#0e0f11"/>
<path d="M215.924 22.051C214.924 24.06 214.124 25.806 213.81 26.628C214.277 25.886 215.188 24.191 216.187 22.18C217.186 20.169 217.987 18.422 218.3 17.604C217.835 18.346 216.923 20.041 215.924 22.051Z" fill="#5D5D5D"/>
<path d="M211.316 22.2027C210.443 24.2717 209.753 26.0667 209.491 26.9027C209.912 26.1307 210.714 24.3837 211.585 22.3147C212.456 20.2457 213.151 18.4537 213.408 17.6147C212.988 18.3867 212.187 20.1357 211.316 22.2027Z" fill="#5D5D5D"/>
<path d="M206.724 22.647C205.983 24.764 205.406 26.6 205.2 27.452C205.572 26.652 206.263 24.862 207 22.744C207.737 20.626 208.32 18.791 208.525 17.938C208.156 18.731 207.464 20.529 206.724 22.647Z" fill="#5D5D5D"/>
<path d="M202.17 23.3769C201.564 25.5379 201.105 27.4039 200.951 28.2699C201.269 27.4519 201.851 25.6159 202.451 23.4559C203.051 21.2959 203.519 19.4259 203.67 18.5649C203.354 19.3789 202.778 21.2179 202.17 23.3769Z" fill="#5D5D5D"/>
<path d="M197.672 24.3912C197.201 26.5862 196.861 28.4782 196.759 29.3502C197.03 28.5162 197.489 26.6502 197.959 24.4502C198.429 22.2502 198.772 20.3632 198.868 19.4932C198.6 20.3272 198.14 22.1972 197.672 24.3912Z" fill="#5D5D5D"/>
<path d="M193.244 25.6881C192.915 27.9051 192.692 29.8171 192.644 30.6941C192.861 29.8431 193.201 27.9511 193.533 25.7301C193.865 23.5091 194.086 21.5981 194.133 20.7231C193.917 21.5711 193.578 23.4681 193.244 25.6881Z" fill="#5D5D5D"/>
<path d="M188.908 27.2601C188.718 29.4951 188.616 31.4131 188.626 32.2911C188.79 31.4301 189.01 29.5191 189.202 27.2831C189.394 25.0471 189.494 23.1251 189.482 22.2471C189.32 23.1091 189.098 25.0181 188.908 27.2601Z" fill="#5D5D5D"/>
<path d="M184.678 29.0981C184.628 31.3411 184.648 33.2651 184.712 34.1371C184.82 33.2701 184.923 31.3481 184.972 29.1051C185.021 26.8621 185.004 24.9351 184.936 24.0601C184.83 24.9311 184.728 26.8541 184.678 29.0981Z" fill="#5D5D5D"/>
<path d="M180.573 31.2018C180.665 33.4408 180.803 35.3598 180.922 36.2268C180.977 35.3538 180.961 33.4268 180.868 31.1878C180.775 28.9488 180.637 27.0258 180.515 26.1548C180.463 27.0318 180.478 28.9578 180.573 31.2018Z" fill="#5D5D5D"/>
<path d="M176.605 33.5569C176.839 35.7859 177.099 37.6919 177.273 38.5509C177.273 37.6749 177.131 35.7509 176.9 33.5249C176.669 31.2989 176.409 29.3839 176.231 28.5249C176.234 29.4029 176.377 31.3179 176.605 33.5569Z" fill="#5D5D5D"/>
<path d="M172.796 36.1567C173.171 38.3657 173.547 40.2567 173.776 41.0997C173.718 40.2247 173.46 38.3147 173.089 36.1057C172.718 33.8967 172.336 32.0057 172.106 31.1577C172.166 32.0317 172.424 33.9407 172.796 36.1567Z" fill="#5D5D5D"/>
<path d="M169.158 38.989C169.67 41.171 170.165 43.031 170.446 43.862C170.335 42.993 169.955 41.104 169.446 38.92C168.937 36.736 168.437 34.876 168.154 34.043C168.269 34.918 168.647 36.804 169.158 38.989Z" fill="#5D5D5D"/>
<path d="M165.707 42.0448C166.355 44.1908 166.963 46.0149 167.297 46.8269C167.131 45.9669 166.632 44.1059 165.989 41.9599C165.346 39.8139 164.729 37.9859 164.395 37.1729C164.562 38.0349 165.058 39.8988 165.707 42.0448Z" fill="#5D5D5D"/>
<path d="M162.451 45.3127C163.232 47.4127 163.957 49.1977 164.338 49.9867C164.119 49.1367 163.505 47.3107 162.729 45.2107C161.953 43.1107 161.22 41.3237 160.837 40.5337C161.058 41.3827 161.671 43.2087 162.451 45.3127Z" fill="#5D5D5D"/>
<path d="M159.408 48.7789C160.319 50.8249 161.154 52.5609 161.587 53.3249C161.314 52.4929 160.587 50.7069 159.677 48.6569C158.767 46.6069 157.928 44.8719 157.496 44.1079C157.771 44.9439 158.497 46.7279 159.408 48.7789Z" fill="#5D5D5D"/>
<path d="M156.588 52.4277C157.626 54.4127 158.566 56.0917 159.048 56.8277C158.723 56.0137 157.883 54.2787 156.848 52.2887C155.813 50.2987 154.865 48.6227 154.383 47.8887C154.713 48.7037 155.551 50.4407 156.588 52.4277Z" fill="#5D5D5D"/>
<path d="M154.004 56.248C155.163 58.164 156.209 59.782 156.734 60.485C156.359 59.691 155.414 58.013 154.255 56.092C153.096 54.171 152.046 52.559 151.521 51.854C151.899 52.647 152.842 54.328 154.004 56.248Z" fill="#5D5D5D"/>
<path d="M151.661 60.2177C152.939 62.0617 154.085 63.6077 154.654 64.2787C154.229 63.5107 153.179 61.8937 151.905 60.0487C150.631 58.2037 149.476 56.6617 148.905 55.9917C149.334 56.7617 150.384 58.3787 151.661 60.2177Z" fill="#5D5D5D"/>
<path d="M149.577 64.3351C150.969 66.0901 152.209 67.5651 152.818 68.1991C152.344 67.4581 151.195 65.9111 149.808 64.1491C148.421 62.3871 147.172 60.9201 146.564 60.2871C147.036 61.0291 148.186 62.5781 149.577 64.3351Z" fill="#5D5D5D"/>
<path d="M147.754 68.5707C149.254 70.2357 150.583 71.6297 151.23 72.2237C150.713 71.5137 149.466 70.0407 147.973 68.3727C146.48 66.7047 145.138 65.3137 144.492 64.7207C145.012 65.4297 146.255 66.9027 147.754 68.5707Z" fill="#5D5D5D"/>
<path d="M146.198 72.9178C147.798 74.4858 149.214 75.7928 149.898 76.3438C149.338 75.6688 147.998 74.2788 146.407 72.7048C144.816 71.1308 143.386 69.8318 142.702 69.2808C143.265 69.9528 144.601 71.3438 146.198 72.9178Z" fill="#5D5D5D"/>
<path d="M144.92 77.3451C146.62 78.8091 148.111 80.0241 148.829 80.5341C148.229 79.8931 146.805 78.5901 145.114 77.1181C143.423 75.6461 141.92 74.4401 141.201 73.9321C141.807 74.5721 143.227 75.8791 144.92 77.3451Z" fill="#5D5D5D"/>
<path d="M143.922 81.8468C145.708 83.2028 147.276 84.3218 148.022 84.7848C147.381 84.1848 145.879 82.9708 144.1 81.6098C142.321 80.2488 140.744 79.1378 140 78.6768C140.641 79.2778 142.141 80.4918 143.922 81.8468Z" fill="#5D5D5D"/>
<path d="M143.209 86.4038C145.077 87.6428 146.709 88.6609 147.488 89.0779C146.811 88.5159 145.237 87.4029 143.374 86.1569C141.511 84.9109 139.867 83.8998 139.095 83.4858C139.778 84.0428 141.348 85.1648 143.209 86.4038Z" fill="#5D5D5D"/>
<path d="M142.784 90.9969C144.724 92.1179 146.421 93.0289 147.224 93.3969C146.509 92.8809 144.871 91.8669 142.934 90.7389C140.997 89.6109 139.292 88.7059 138.494 88.3389C139.209 88.8579 140.848 89.8749 142.784 90.9969Z" fill="#5D5D5D"/>
<path d="M142.646 95.6081C144.656 96.6081 146.407 97.4081 147.228 97.7241C146.485 97.2511 144.785 96.3431 142.781 95.3391C140.777 94.3351 139.02 93.5391 138.199 93.2261C138.944 93.6971 140.645 94.6081 142.646 95.6081Z" fill="#5D5D5D"/>
<path d="M142.8 100.218C144.87 101.086 146.665 101.782 147.507 102.043C146.736 101.618 144.981 100.819 142.918 99.943C140.855 99.067 139.05 98.384 138.218 98.123C138.985 98.541 140.74 99.346 142.8 100.218Z" fill="#5D5D5D"/>
<path d="M143.243 104.808C145.362 105.543 147.199 106.124 148.053 106.333C147.253 105.958 145.453 105.27 143.343 104.526C141.233 103.782 139.384 103.212 138.534 103.006C139.329 103.375 141.133 104.069 143.243 104.808Z" fill="#5D5D5D"/>
<path d="M143.978 109.362C146.138 109.962 148.007 110.426 148.878 110.583C148.059 110.256 146.221 109.683 144.065 109.075C141.909 108.467 140.033 108.011 139.165 107.858C139.978 108.179 141.824 108.758 143.978 109.362Z" fill="#5D5D5D"/>
<path d="M144.99 113.862C147.181 114.325 149.076 114.672 149.953 114.77C149.115 114.498 147.243 114.042 145.053 113.57C142.863 113.098 140.961 112.761 140.092 112.663C140.927 112.93 142.804 113.395 144.99 113.862Z" fill="#5D5D5D"/>
<path d="M146.283 118.289C148.501 118.611 150.415 118.838 151.295 118.883C150.441 118.663 148.542 118.327 146.331 117.991C144.12 117.655 142.196 117.445 141.319 117.397C142.171 117.618 144.077 117.959 146.283 118.289Z" fill="#5D5D5D"/>
<path d="M147.855 122.623C150.088 122.811 152.013 122.915 152.892 122.903C152.029 122.741 150.112 122.522 147.884 122.325C145.656 122.128 143.722 122.04 142.842 122.048C143.71 122.208 145.629 122.435 147.855 122.623Z" fill="#5D5D5D"/>
<path d="M149.694 126.853C151.934 126.897 153.862 126.882 154.739 126.816C153.866 126.708 151.939 126.608 149.702 126.552C147.465 126.496 145.532 126.529 144.655 126.59C145.529 126.702 147.462 126.806 149.694 126.853Z" fill="#5D5D5D"/>
<path d="M151.798 130.959C154.034 130.859 155.959 130.725 156.83 130.606C155.952 130.551 154.023 130.574 151.786 130.657C149.549 130.74 147.624 130.897 146.752 131.013C147.63 131.067 149.565 131.052 151.798 130.959Z" fill="#5D5D5D"/>
<path d="M154.152 134.924C156.38 134.688 158.29 134.43 159.152 134.254C158.271 134.254 156.347 134.4 154.121 134.623C151.895 134.846 149.982 135.123 149.121 135.296C150.002 135.294 151.931 135.156 154.152 134.924Z" fill="#5D5D5D"/>
<path d="M156.751 138.735C158.961 138.359 160.851 137.982 161.702 137.752C160.824 137.809 158.912 138.073 156.702 138.437C154.492 138.801 152.602 139.196 151.754 139.421C152.634 139.363 154.549 139.104 156.751 138.735Z" fill="#5D5D5D"/>
<path d="M159.585 142.374C161.767 141.86 163.63 141.367 164.465 141.082C163.592 141.195 161.699 141.575 159.519 142.082C157.339 142.589 155.476 143.099 154.641 143.375C155.514 143.259 157.411 142.881 159.585 142.374Z" fill="#5D5D5D"/>
<path d="M162.64 145.828C164.787 145.177 166.613 144.567 167.43 144.228C166.565 144.394 164.703 144.893 162.557 145.536C160.411 146.179 158.586 146.801 157.771 147.129C158.635 146.968 160.504 146.469 162.64 145.828Z" fill="#5D5D5D"/>
<path d="M165.908 149.083C168.008 148.298 169.794 147.575 170.588 147.189C169.734 147.41 167.907 148.025 165.806 148.799C163.705 149.573 161.922 150.314 161.13 150.693C161.978 150.471 163.816 149.857 165.908 149.083Z" fill="#5D5D5D"/>
<path d="M169.378 152.125C171.425 151.212 173.162 150.378 173.929 149.942C173.091 150.219 171.306 150.942 169.257 151.85C167.208 152.758 165.473 153.604 164.709 154.033C165.541 153.757 167.336 153.03 169.378 152.125Z" fill="#5D5D5D"/>
<path d="M173.02 154.944C175.009 153.905 176.688 152.962 177.428 152.48C176.61 152.807 174.873 153.645 172.886 154.68C170.899 155.715 169.222 156.667 168.486 157.144C169.299 156.818 171.045 155.977 173.02 154.944Z" fill="#5D5D5D"/>
<path d="M197.941 166.612C199.404 164.912 200.623 163.42 201.129 162.698C200.49 163.304 199.183 164.722 197.714 166.414C196.245 168.106 195.04 169.614 194.53 170.325C195.167 169.718 196.483 168.301 197.941 166.612Z" fill="#5D5D5D"/>
<path d="M202.446 167.611C203.798 165.824 204.92 164.256 205.379 163.503C204.779 164.149 203.566 165.644 202.206 167.424C200.846 169.204 199.74 170.788 199.272 171.53C199.871 170.887 201.095 169.386 202.446 167.611Z" fill="#5D5D5D"/>
<path d="M207.003 168.325C208.244 166.453 209.262 164.82 209.673 164.04C209.114 164.722 207.999 166.29 206.753 168.154C205.507 170.018 204.502 171.664 204.082 172.432C204.639 171.756 205.766 170.18 207.003 168.325Z" fill="#5D5D5D"/>
<path d="M211.598 168.749C212.717 166.805 213.631 165.11 213.991 164.307C213.475 165.022 212.462 166.658 211.334 168.594C210.206 170.53 209.31 172.241 208.934 173.034C209.452 172.318 210.478 170.679 211.598 168.749Z" fill="#5D5D5D"/>
<path d="M216.206 168.886C217.206 166.874 218.006 165.124 218.316 164.301C217.85 165.047 216.94 166.743 215.934 168.746C214.928 170.749 214.143 172.512 213.822 173.327C214.291 172.584 215.211 170.881 216.206 168.886Z" fill="#5D5D5D"/>
<path d="M220.816 168.733C221.684 166.663 222.38 164.866 222.634 164.025C222.214 164.796 221.416 166.547 220.534 168.612C219.652 170.677 218.983 172.481 218.714 173.312C219.136 172.542 219.949 170.786 220.816 168.733Z" fill="#5D5D5D"/>
<path d="M225.408 168.29C226.144 166.169 226.723 164.333 226.925 163.476C226.557 164.276 225.867 166.076 225.125 168.184C224.383 170.292 223.819 172.147 223.603 172.996C223.969 172.198 224.672 170.395 225.408 168.29Z" fill="#5D5D5D"/>
<path d="M229.963 167.559C230.563 165.397 231.027 163.528 231.177 162.659C230.857 163.479 230.277 165.315 229.67 167.471C229.063 169.627 228.616 171.507 228.455 172.371C228.772 171.55 229.36 169.706 229.963 167.559Z" fill="#5D5D5D"/>
<path d="M262.978 151.946C262.461 149.764 261.969 147.903 261.678 147.066C261.797 147.941 262.178 149.831 262.678 152.012C263.193 154.2 263.703 156.055 263.971 156.887C263.854 156.018 263.478 154.118 262.978 151.946Z" fill="#5D5D5D"/>
<path d="M266.429 148.887C265.775 146.743 265.169 144.918 264.829 144.101C265.001 144.967 265.498 146.827 266.137 148.973C266.776 151.119 267.41 152.945 267.737 153.76C267.563 152.895 267.068 151.024 266.429 148.887Z" fill="#5D5D5D"/>
<path d="M269.684 145.618C268.898 143.518 268.177 141.734 267.784 140.94C268.009 141.796 268.624 143.618 269.396 145.721C270.168 147.824 270.917 149.603 271.288 150.399C271.067 149.548 270.456 147.718 269.684 145.618Z" fill="#5D5D5D"/>
<path d="M272.728 142.156C271.812 140.108 270.98 138.374 270.539 137.606C270.817 138.445 271.545 140.225 272.447 142.276C273.349 144.327 274.21 146.054 274.63 146.824C274.354 145.988 273.63 144.195 272.728 142.156Z" fill="#5D5D5D"/>
<path d="M275.548 138.505C274.505 136.519 273.566 134.841 273.077 134.105C273.408 134.926 274.246 136.657 275.277 138.645C276.308 140.633 277.277 142.308 277.741 143.045C277.411 142.227 276.578 140.483 275.548 138.505Z" fill="#5D5D5D"/>
<path d="M278.133 134.685C276.968 132.768 275.924 131.153 275.391 130.445C275.771 131.245 276.716 132.918 277.869 134.84C279.022 136.762 280.094 138.371 280.604 139.079C280.226 138.284 279.283 136.594 278.133 134.685Z" fill="#5D5D5D"/>
<path d="M280.478 130.711C279.194 128.871 278.052 127.323 277.473 126.652C277.905 127.423 278.957 129.038 280.225 130.88C281.51 132.727 282.664 134.264 283.219 134.941C282.789 134.17 281.739 132.542 280.478 130.711Z" fill="#5D5D5D"/>
<path d="M282.558 126.597C281.163 124.841 279.925 123.37 279.308 122.736C279.785 123.479 280.934 125.021 282.316 126.784C283.716 128.544 284.964 130.005 285.562 130.647C285.087 129.903 283.938 128.345 282.558 126.597Z" fill="#5D5D5D"/>
<path d="M284.378 122.36C282.878 120.696 281.548 119.304 280.888 118.711C281.416 119.421 282.658 120.89 284.148 122.563C285.653 124.234 286.995 125.611 287.63 126.213C287.115 125.5 285.869 124.018 284.378 122.36Z" fill="#5D5D5D"/>
<path d="M285.936 118.018C284.336 116.453 282.921 115.147 282.224 114.595C282.794 115.273 284.124 116.662 285.718 118.236C287.328 119.807 288.751 121.099 289.424 121.661C288.86 120.981 287.524 119.578 285.936 118.018Z" fill="#5D5D5D"/>
<path d="M287.217 113.586C285.517 112.121 284.023 110.91 283.295 110.405C283.905 111.041 285.323 112.342 287.01 113.814C288.716 115.282 290.216 116.483 290.922 117C290.32 116.359 288.895 115.045 287.217 113.586Z" fill="#5D5D5D"/>
<path d="M288.213 109.082C286.424 107.727 284.859 106.61 284.099 106.151C284.751 106.751 286.247 107.959 288.022 109.322C289.816 110.682 291.389 111.786 292.128 112.26C291.485 111.656 289.978 110.434 288.213 109.082Z" fill="#5D5D5D"/>
<path d="M288.926 104.524C287.055 103.287 285.426 102.269 284.637 101.859C285.323 102.416 286.892 103.528 288.751 104.778C290.627 106.02 292.265 107.024 293.03 107.45C292.353 106.888 290.778 105.764 288.926 104.524Z" fill="#5D5D5D"/>
<path d="M289.35 99.931C287.405 98.813 285.712 97.902 284.902 97.541C285.623 98.053 287.256 99.065 289.19 100.196C291.14 101.318 292.839 102.217 293.631 102.596C292.919 102.076 291.272 101.054 289.35 99.931Z" fill="#5D5D5D"/>
<path d="M289.483 95.3179C287.475 94.3229 285.728 93.5179 284.896 93.2129C285.649 93.6779 287.345 94.5859 289.344 95.5919C291.36 96.5919 293.112 97.3799 293.926 97.7059C293.177 97.2379 291.477 96.3179 289.483 95.3179Z" fill="#5D5D5D"/>
<path d="M289.332 90.709C287.264 89.844 285.469 89.152 284.62 88.897C285.398 89.315 287.148 90.115 289.207 90.997C291.285 91.866 293.081 92.543 293.915 92.818C293.143 92.391 291.383 91.583 289.332 90.709Z" fill="#5D5D5D"/>
<path d="M288.886 86.118C286.77 85.383 284.933 84.804 284.071 84.605C284.877 84.971 286.671 85.66 288.78 86.405C290.909 87.139 292.744 87.705 293.592 87.926C292.796 87.559 290.989 86.861 288.886 86.118Z" fill="#5D5D5D"/>
<path d="M288.16 81.5649C286 80.9649 284.13 80.5039 283.26 80.3589C284.087 80.6729 285.923 81.2459 288.075 81.8589C290.244 82.4589 292.111 82.9059 292.975 83.0759C292.149 82.7559 290.301 82.1739 288.16 81.5649Z" fill="#5D5D5D"/>
<path d="M287.143 77.065C284.952 76.603 283.055 76.259 282.172 76.165C283.018 76.429 284.887 76.887 287.072 77.365C289.278 77.83 291.172 78.157 292.038 78.272C291.202 78.005 289.32 77.538 287.143 77.065Z" fill="#5D5D5D"/>
<path d="M285.847 72.6367C283.631 72.3167 281.717 72.0907 280.83 72.0547C281.692 72.2667 283.584 72.6037 285.798 72.9447C288.012 73.2857 289.932 73.4767 290.809 73.5377C289.955 73.3177 288.052 72.9737 285.847 72.6367Z" fill="#5D5D5D"/>
<path d="M284.277 68.3007C282.046 68.1187 280.123 68.0137 279.234 68.0337C280.106 68.1897 282.017 68.4087 284.247 68.6097C286.491 68.7937 288.408 68.8827 289.287 68.8877C288.419 68.7237 286.495 68.4967 284.277 68.3007Z" fill="#5D5D5D"/>
<path d="M282.436 64.0728C280.198 64.0308 278.269 64.0458 277.387 64.1218C278.266 64.2218 280.187 64.3218 282.422 64.3808C284.675 64.4238 286.594 64.3928 287.472 64.3438C286.596 64.2348 284.664 64.1288 282.436 64.0728Z" fill="#5D5D5D"/>
<path d="M280.333 59.9647C278.097 60.0647 276.174 60.2027 275.298 60.3337C276.181 60.3787 278.105 60.3557 280.342 60.2757C282.59 60.1757 284.505 60.0247 285.376 59.9207C284.497 59.8677 282.561 59.8827 280.333 59.9647Z" fill="#5D5D5D"/>
<path d="M277.978 55.9997C275.753 56.2397 273.843 56.4997 272.978 56.6827C273.862 56.6747 275.783 56.5307 278.008 56.3117C280.246 56.0707 282.148 55.7977 283.008 55.6387C282.129 55.6387 280.195 55.7777 277.978 55.9997Z" fill="#5D5D5D"/>
<path d="M275.378 52.19C273.17 52.569 271.278 52.946 270.428 53.19C271.311 53.124 273.214 52.862 275.428 52.503C277.647 52.124 279.528 51.731 280.38 51.519C279.498 51.569 277.578 51.828 275.378 52.19Z" fill="#5D5D5D"/>
<path d="M272.544 48.5511C270.366 49.0681 268.502 49.5631 267.667 49.8511C268.543 49.7301 270.426 49.3511 272.611 48.8511C274.798 48.3311 276.652 47.8231 277.49 47.5591C276.616 47.6731 274.715 48.0531 272.544 48.5511Z" fill="#5D5D5D"/>
<path d="M269.486 45.0968C267.345 45.7498 265.516 46.3619 264.7 46.7059C265.568 46.5339 267.423 46.0299 269.573 45.3979C271.723 44.7419 273.542 44.1199 274.36 43.7979C273.495 43.9629 271.623 44.4618 269.486 45.0968Z" fill="#5D5D5D"/>
<path d="M266.216 41.8418C264.123 42.6268 262.336 43.3538 261.544 43.7478C262.399 43.5208 264.22 42.9008 266.322 42.1388C268.428 41.3488 270.207 40.6108 271.002 40.2388C270.147 40.4578 268.31 41.0748 266.216 41.8418Z" fill="#5D5D5D"/>
<path d="M262.751 38.7978C260.708 39.7148 258.97 40.5478 258.206 40.9978C259.044 40.7148 260.826 39.9818 262.875 39.0888C264.927 38.1668 266.653 37.3178 267.425 36.9058C266.586 37.1708 264.793 37.9008 262.751 38.7978Z" fill="#5D5D5D"/>
<path d="M259.101 35.979C257.12 37.022 255.437 37.964 254.701 38.456C255.52 38.123 257.251 37.281 259.241 36.256C261.232 35.207 262.902 34.256 263.648 33.793C262.825 34.112 261.078 34.956 259.101 35.979Z" fill="#5D5D5D"/>
<path d="M255.278 33.3937C253.365 34.5577 251.746 35.6047 251.041 36.1437C251.841 35.7587 253.515 34.8067 255.441 33.6657C257.361 32.4927 258.968 31.4377 259.683 30.9277C258.878 31.2967 257.194 32.2487 255.278 33.3937Z" fill="#5D5D5D"/>
<path d="M251.304 31.0539C249.472 32.3349 247.921 33.4819 247.252 34.0649C248.022 33.6279 249.633 32.5769 251.481 31.3149C253.325 30.0229 254.861 28.8699 255.543 28.3149C254.766 28.7369 253.143 29.7889 251.304 31.0539Z" fill="#5D5D5D"/>
<path d="M247.189 28.9677C245.441 30.3677 243.966 31.6047 243.335 32.2267C244.077 31.7447 245.619 30.5938 247.383 29.2168C249.141 27.8168 250.603 26.5638 251.25 25.9688C250.502 26.4358 248.944 27.5917 247.189 28.9677Z" fill="#5D5D5D"/>
<path d="M242.953 27.1469C241.296 28.6469 239.902 29.9799 239.311 30.6399C240.02 30.1099 241.487 28.8659 243.161 27.3819C244.83 25.8689 246.209 24.5319 246.814 23.8989C246.099 24.4109 244.619 25.6609 242.953 27.1469Z" fill="#5D5D5D"/>
<path d="M238.61 25.5909C237.049 27.1909 235.74 28.6119 235.195 29.3089C235.868 28.7349 237.254 27.3999 238.833 25.8149C240.401 24.1979 241.693 22.7799 242.26 22.1089C241.577 22.6639 240.177 24.0059 238.61 25.5909Z" fill="#5D5D5D"/>
<path d="M234.178 24.3178C232.719 26.0178 231.504 27.5108 231.002 28.2418C231.64 27.6248 232.938 26.2048 234.414 24.5268C235.879 22.8148 237.08 21.3168 237.602 20.6128C236.956 21.2068 235.643 22.6328 234.178 24.3178Z" fill="#5D5D5D"/>
<path d="M229.678 23.3178C228.331 25.1048 227.21 26.6738 226.756 27.4348C227.356 26.7788 228.556 25.2808 229.926 23.5118C231.281 21.7118 232.384 20.1408 232.863 19.4038C232.252 20.0408 231.032 21.5468 229.678 23.3178Z" fill="#5D5D5D"/>
<path d="M225.118 22.6051C223.884 24.4731 222.867 26.1051 222.46 26.8951C223.016 26.2031 224.125 24.6331 225.379 22.7821C226.617 20.9001 227.622 19.265 228.051 18.498C227.478 19.172 226.361 20.7531 225.118 22.6051Z" fill="#5D5D5D"/>
<path d="M220.526 22.18C219.414 24.122 218.498 25.818 218.142 26.63C218.652 25.903 219.663 24.268 220.797 22.342C221.915 20.383 222.814 18.69 223.197 17.897C222.672 18.607 221.65 20.254 220.526 22.18Z" fill="#5D5D5D"/>
<path d="M216.055 160.463C228.909 160.463 241.475 156.651 252.163 149.51C262.851 142.368 271.181 132.218 276.1 120.342C281.019 108.466 282.306 95.3983 279.799 82.7909C277.291 70.1836 271.101 58.6029 262.012 49.5134C252.923 40.424 241.342 34.2339 228.735 31.726C216.127 29.2181 203.059 30.5051 191.183 35.4241C179.308 40.3431 169.157 48.6733 162.015 59.3612C154.874 70.0491 151.062 82.6147 151.062 95.4691C151.061 104.004 152.742 112.456 156.008 120.341C159.274 128.227 164.062 135.392 170.097 141.427C176.132 147.462 183.297 152.25 191.182 155.516C199.068 158.782 207.519 160.463 216.055 160.463V160.463ZM277.622 93.1001C277.622 93.1001 278 104.356 274.696 114.525C271.392 124.694 264.472 133.577 264.472 133.577C261.13 137.505 256.172 137.354 253.451 133.235C250.73 129.116 245.966 121.91 242.878 117.218L237.545 109.143C234.445 104.457 236.22 99.0051 241.481 97.0331L250.539 93.6331C255.802 91.6621 263.888 88.6331 268.51 86.8961C273.132 85.1591 277.229 87.9571 277.622 93.1001ZM232.828 36.1871C232.828 36.1871 243.647 39.3031 252.298 45.5871C260.949 51.8711 267.261 61.2001 267.261 61.2001C269.961 65.5941 268.285 70.2641 263.529 71.5771C258.773 72.8901 250.446 75.1931 245.029 76.6881L235.704 79.2651C230.289 80.7651 225.65 77.3921 225.404 71.7791L224.971 62.1111C224.722 56.4981 224.336 47.8691 224.118 42.9391C223.9 38.0091 227.813 34.9701 232.828 36.1871ZM222.428 120.129L228.458 127.694C231.963 132.086 237.342 138.841 240.421 142.703C243.5 146.565 242.108 151.327 237.339 153.29C237.339 153.29 226.75 157.127 216.058 157.127C205.366 157.127 194.778 153.29 194.778 153.29C190.007 151.327 188.621 146.561 191.696 142.703C194.771 138.845 200.155 132.086 203.658 127.694L209.687 120.129C213.189 115.737 218.923 115.737 222.425 120.129H222.428ZM164.86 61.2011C164.86 61.2011 171.168 51.8731 179.819 45.5881C188.47 39.3031 199.291 36.1831 199.291 36.1831C204.304 34.9711 208.227 38.0081 208.007 42.9381C207.787 47.8681 207.407 56.4991 207.152 62.1121L206.718 71.7801C206.469 77.3901 201.831 80.7601 196.418 79.2651L187.093 76.6891L168.593 71.5761C163.831 70.2641 162.152 65.5921 164.857 61.2011H164.86ZM163.611 86.8951C168.231 88.6301 176.32 91.6611 181.582 93.6351L190.641 97.0351C195.902 99.0091 197.675 104.46 194.577 109.148L189.244 117.222C186.144 121.913 181.386 129.122 178.667 133.236C175.948 137.35 170.987 137.506 167.645 133.576C167.645 133.576 160.725 124.695 157.422 114.528C154.119 104.361 154.494 93.1001 154.494 93.1001C154.887 87.9571 158.989 85.1631 163.608 86.8951H163.611Z" fill="#E0E0E0"/>
<path d="M212.367 80.2119C212.368 79.4824 212.585 78.7694 212.99 78.1631C213.396 77.5568 213.973 77.0845 214.647 76.8057C215.321 76.527 216.063 76.4544 216.778 76.5972C217.494 76.74 218.151 77.0917 218.666 77.6078C219.182 78.1239 219.533 78.7813 219.675 79.4969C219.817 80.2125 219.743 80.9541 219.464 81.628C219.184 82.3019 218.711 82.8778 218.105 83.2829C217.498 83.688 216.785 83.9041 216.055 83.9039C215.571 83.9037 215.091 83.8081 214.643 83.6225C214.195 83.4369 213.789 83.1649 213.446 82.822C213.104 82.4791 212.832 82.0722 212.647 81.6243C212.462 81.1764 212.367 80.6965 212.367 80.2119Z" fill="#4A4A4A"/>
<path d="M213.97 80.212C213.97 79.7994 214.092 79.3961 214.322 79.0532C214.551 78.7103 214.877 78.4431 215.258 78.2854C215.64 78.1277 216.059 78.0865 216.464 78.1672C216.868 78.2479 217.24 78.4468 217.531 78.7386C217.823 79.0305 218.022 79.4023 218.102 79.807C218.182 80.2117 218.141 80.6311 217.983 81.0122C217.825 81.3932 217.557 81.7189 217.214 81.9479C216.871 82.177 216.467 82.2992 216.055 82.299C215.781 82.2988 215.51 82.2447 215.257 82.1398C215.003 82.0348 214.774 81.8811 214.58 81.6873C214.386 81.4935 214.233 81.2634 214.128 81.0103C214.023 80.7572 213.97 80.4859 213.97 80.212V80.212Z" fill="#BABABA"/>
<path d="M214.896 80.2118C214.896 79.9823 214.965 79.758 215.092 79.5672C215.22 79.3764 215.401 79.2277 215.613 79.14C215.825 79.0522 216.058 79.0293 216.283 79.0741C216.508 79.119 216.715 79.2295 216.877 79.3919C217.039 79.5542 217.15 79.761 217.194 79.9861C217.239 80.2111 217.216 80.4444 217.128 80.6564C217.04 80.8683 216.891 81.0494 216.7 81.1768C216.509 81.3041 216.285 81.372 216.055 81.3718C215.748 81.3712 215.453 81.2488 215.236 81.0314C215.019 80.8139 214.897 80.5192 214.896 80.2118V80.2118Z" fill="#E0E0E0"/>
<path d="M200.405 94.2638C199.711 94.0383 199.099 93.6119 198.647 93.0387C198.196 92.4654 197.924 91.7711 197.867 91.0434C197.81 90.3157 197.97 89.5875 198.326 88.9507C198.683 88.3139 199.221 87.7973 199.871 87.4661C200.522 87.1349 201.256 87.0041 201.981 87.0902C202.705 87.1763 203.388 87.4753 203.943 87.9496C204.498 88.4239 204.9 89.0521 205.097 89.7547C205.295 90.4573 205.28 91.2028 205.054 91.8968C204.751 92.8269 204.091 93.5986 203.22 94.0424C202.348 94.4862 201.336 94.5659 200.405 94.2638V94.2638Z" fill="#4A4A4A"/>
<path d="M200.9 92.7381C200.508 92.6102 200.163 92.3691 199.908 92.0451C199.653 91.7211 199.5 91.3289 199.468 90.9179C199.436 90.507 199.527 90.0957 199.728 89.7362C199.93 89.3766 200.234 89.0849 200.601 88.8978C200.968 88.7108 201.383 88.6369 201.792 88.6854C202.202 88.7339 202.587 88.9026 202.901 89.1703C203.214 89.438 203.441 89.7926 203.553 90.1893C203.665 90.586 203.657 91.007 203.53 91.3991C203.359 91.9254 202.986 92.3621 202.493 92.6132C201.999 92.8643 201.427 92.9092 200.9 92.7381Z" fill="#BABABA"/>
<path d="M201.187 91.8559C200.97 91.7845 200.778 91.6502 200.637 91.4701C200.496 91.2899 200.411 91.0718 200.394 90.8436C200.377 90.6153 200.427 90.387 200.54 90.1875C200.652 89.988 200.821 89.8262 201.025 89.7227C201.229 89.6192 201.46 89.5786 201.687 89.6059C201.914 89.6333 202.128 89.7274 202.302 89.8764C202.476 90.0254 202.602 90.2225 202.664 90.443C202.725 90.6634 202.721 90.8972 202.649 91.1149C202.554 91.4069 202.346 91.6489 202.072 91.7878C201.798 91.9268 201.48 91.9512 201.187 91.8559V91.8559Z" fill="#E0E0E0"/>
<path d="M210.078 109.981C209.649 110.571 209.055 111.02 208.37 111.273C207.686 111.525 206.942 111.569 206.232 111.398C205.523 111.228 204.88 110.851 204.385 110.315C203.89 109.78 203.565 109.109 203.451 108.388C203.337 107.668 203.439 106.93 203.744 106.267C204.05 105.605 204.545 105.048 205.167 104.666C205.789 104.285 206.51 104.097 207.239 104.125C207.968 104.154 208.672 104.398 209.262 104.827C210.054 105.402 210.584 106.268 210.737 107.235C210.891 108.201 210.653 109.189 210.078 109.981Z" fill="#4A4A4A"/>
<path d="M208.778 109.04C208.535 109.373 208.199 109.627 207.811 109.769C207.424 109.911 207.004 109.935 206.603 109.838C206.202 109.741 205.839 109.528 205.559 109.224C205.279 108.921 205.096 108.542 205.032 108.134C204.968 107.727 205.026 107.31 205.199 106.935C205.373 106.561 205.653 106.246 206.005 106.031C206.357 105.816 206.764 105.71 207.177 105.726C207.589 105.743 207.987 105.881 208.32 106.124C208.542 106.285 208.73 106.488 208.873 106.722C209.016 106.956 209.112 107.216 209.154 107.487C209.197 107.758 209.186 108.034 209.121 108.301C209.056 108.567 208.94 108.819 208.778 109.04V109.04Z" fill="#BABABA"/>
<path d="M208.024 108.496C207.889 108.681 207.702 108.821 207.487 108.9C207.271 108.979 207.038 108.992 206.815 108.938C206.593 108.884 206.391 108.765 206.236 108.597C206.081 108.428 205.979 108.217 205.944 107.991C205.908 107.765 205.94 107.533 206.036 107.325C206.132 107.118 206.288 106.943 206.483 106.823C206.678 106.703 206.905 106.644 207.134 106.653C207.362 106.662 207.583 106.739 207.769 106.873C207.893 106.962 207.997 107.076 208.077 107.206C208.157 107.336 208.21 107.481 208.234 107.631C208.258 107.782 208.251 107.936 208.215 108.085C208.179 108.233 208.114 108.373 208.024 108.496V108.496Z" fill="#E0E0E0"/>
<path d="M228.008 105.646C228.436 106.237 228.679 106.941 228.707 107.67C228.735 108.399 228.547 109.12 228.165 109.741C227.783 110.363 227.226 110.858 226.563 111.163C225.901 111.468 225.163 111.569 224.442 111.455C223.722 111.34 223.051 111.015 222.516 110.52C221.981 110.024 221.604 109.381 221.434 108.672C221.264 107.963 221.308 107.219 221.56 106.534C221.813 105.85 222.263 105.256 222.853 104.827C223.245 104.542 223.689 104.337 224.161 104.224C224.632 104.111 225.121 104.092 225.6 104.168C226.079 104.244 226.538 104.414 226.951 104.668C227.364 104.921 227.723 105.254 228.008 105.646V105.646Z" fill="#4A4A4A"/>
<path d="M226.709 106.588C226.951 106.922 227.088 107.32 227.104 107.732C227.12 108.144 227.013 108.551 226.797 108.902C226.581 109.254 226.266 109.533 225.892 109.705C225.517 109.878 225.1 109.935 224.693 109.87C224.286 109.805 223.907 109.621 223.604 109.341C223.302 109.061 223.089 108.698 222.993 108.297C222.897 107.896 222.922 107.475 223.065 107.089C223.207 106.702 223.462 106.366 223.795 106.124C224.017 105.963 224.268 105.847 224.535 105.783C224.801 105.719 225.078 105.708 225.348 105.752C225.619 105.795 225.879 105.891 226.112 106.034C226.346 106.178 226.549 106.366 226.709 106.588V106.588Z" fill="#BABABA"/>
<path d="M225.96 107.133C226.094 107.319 226.17 107.54 226.178 107.769C226.187 107.998 226.127 108.224 226.007 108.419C225.887 108.614 225.712 108.769 225.504 108.864C225.295 108.96 225.064 108.991 224.837 108.955C224.611 108.919 224.401 108.816 224.233 108.66C224.065 108.504 223.948 108.302 223.895 108.079C223.842 107.857 223.856 107.623 223.936 107.408C224.016 107.194 224.157 107.007 224.343 106.873C224.466 106.784 224.606 106.72 224.754 106.684C224.902 106.649 225.055 106.643 225.205 106.667C225.355 106.692 225.499 106.745 225.629 106.825C225.758 106.905 225.871 107.01 225.96 107.133V107.133Z" fill="#E0E0E0"/>
<path d="M229.428 87.2471C230.121 87.0229 230.866 87.0093 231.567 87.2082C232.269 87.407 232.896 87.8093 233.369 88.3643C233.842 88.9192 234.139 89.6019 234.225 90.3261C234.31 91.0502 234.178 91.7833 233.847 92.4327C233.515 93.0822 232.999 93.6188 232.362 93.9748C231.726 94.3308 230.999 94.4903 230.272 94.4329C229.545 94.3756 228.851 94.1041 228.279 93.6527C227.706 93.2014 227.28 92.5904 227.055 91.8971C226.753 90.9658 226.834 89.9528 227.279 89.0809C227.724 88.209 228.496 87.5494 229.428 87.2471V87.2471Z" fill="#4A4A4A"/>
<path d="M229.922 88.772C230.314 88.6452 230.735 88.6375 231.132 88.75C231.528 88.8624 231.883 89.09 232.15 89.4038C232.418 89.7177 232.586 90.1037 232.634 90.5132C232.682 90.9227 232.607 91.3373 232.42 91.7044C232.232 92.0716 231.94 92.3749 231.58 92.576C231.22 92.7771 230.809 92.867 230.398 92.8343C229.987 92.8016 229.595 92.6478 229.271 92.3924C228.947 92.1369 228.707 91.7912 228.58 91.399C228.495 91.1384 228.462 90.8637 228.484 90.5905C228.506 90.3173 228.581 90.051 228.706 89.807C228.83 89.563 229.002 89.3459 229.211 89.1683C229.419 88.9907 229.661 88.856 229.922 88.772V88.772Z" fill="#BABABA"/>
<path d="M230.209 89.6562C230.427 89.5868 230.66 89.5834 230.88 89.6466C231.099 89.7097 231.295 89.8365 231.443 90.0109C231.59 90.1853 231.683 90.3996 231.709 90.6266C231.735 90.8536 231.693 91.0832 231.588 91.2864C231.484 91.4896 231.321 91.6572 231.122 91.7681C230.922 91.8791 230.694 91.9283 230.466 91.9097C230.238 91.8911 230.021 91.8054 229.842 91.6635C229.663 91.5215 229.53 91.3297 229.46 91.1122C229.413 90.9675 229.395 90.8148 229.407 90.663C229.419 90.5113 229.461 90.3634 229.531 90.228C229.601 90.0926 229.696 89.9724 229.813 89.8742C229.929 89.7761 230.064 89.702 230.209 89.6562V89.6562Z" fill="#E0E0E0"/>
<path d="M225.023 95.4591C225.023 97.2327 224.498 98.9665 223.513 100.441C222.528 101.916 221.127 103.066 219.489 103.745C217.851 104.424 216.048 104.602 214.308 104.256C212.569 103.91 210.971 103.057 209.716 101.803C208.462 100.549 207.608 98.9513 207.261 97.2119C206.915 95.4724 207.092 93.6694 207.771 92.0308C208.449 90.3921 209.599 88.9915 211.073 88.006C212.548 87.0204 214.281 86.4943 216.055 86.4941C217.232 86.4939 218.398 86.7256 219.486 87.176C220.574 87.6264 221.563 88.2867 222.396 89.1191C223.229 89.9516 223.889 90.94 224.34 92.0278C224.791 93.1157 225.023 94.2816 225.023 95.4591V95.4591Z" fill="#5D5D5D"/>
<path d="M240.417 142.703C237.338 138.841 231.959 132.086 228.454 127.694L222.424 120.129C218.924 115.737 213.188 115.737 209.685 120.129L203.656 127.694C200.156 132.086 194.771 138.841 191.694 142.703C188.617 146.565 190.005 151.327 194.776 153.29C194.776 153.29 205.362 157.127 216.054 157.127C226.746 157.127 237.335 153.29 237.335 153.29C242.104 151.327 243.492 146.561 240.417 142.703ZM232.135 150.062C226.952 151.836 221.53 152.814 216.054 152.962C210.579 152.814 205.158 151.836 199.975 150.062C196.375 148.577 195.321 144.978 197.646 142.062C199.971 139.146 204.038 134.041 206.684 130.72L211.243 125.001C211.789 124.232 212.51 123.605 213.347 123.173C214.185 122.74 215.113 122.514 216.056 122.514C216.998 122.514 217.927 122.74 218.764 123.173C219.602 123.605 220.323 124.232 220.868 125.001L225.424 130.72C228.074 134.041 232.139 139.144 234.465 142.062C236.791 144.98 235.74 148.577 232.135 150.062Z" fill="#C2C2C2"/>
<path d="M268.505 86.8979C263.88 88.6319 255.796 91.6609 250.534 93.6349L241.476 97.0349C236.213 99.0089 234.442 104.461 237.54 109.148L242.872 117.222C245.965 121.913 250.729 129.122 253.449 133.236C256.169 137.35 261.129 137.506 264.47 133.576C264.47 133.576 271.39 124.695 274.695 114.528C278 104.361 277.621 93.1029 277.621 93.1029C277.227 87.9559 273.126 85.1629 268.505 86.8979ZM272.944 97.0469C273.03 102.524 272.284 107.982 270.733 113.235C268.901 118.398 266.296 123.254 263.007 127.635C260.48 130.606 256.734 130.491 254.678 127.38L246.683 115.28L242.654 109.18C242.088 108.424 241.712 107.544 241.557 106.612C241.402 105.681 241.474 104.726 241.765 103.828C242.057 102.93 242.56 102.115 243.232 101.452C243.904 100.789 244.726 100.297 245.628 100.018L252.473 97.4489C256.45 95.9569 262.559 93.6689 266.055 92.3569C269.551 91.0449 272.646 93.1569 272.944 97.0469Z" fill="#C2C2C2"/>
<path d="M224.111 42.9397C224.33 47.8697 224.711 56.4987 224.965 62.1117L225.397 71.7777C225.646 77.3907 230.286 80.7597 235.703 79.2647L245.025 76.6887C250.443 75.1887 258.767 72.8887 263.525 71.5777C268.283 70.2667 269.959 65.5917 267.256 61.1977C267.256 61.1977 260.945 51.8727 252.296 45.5877C243.647 39.3027 232.823 36.1877 232.823 36.1877C227.812 34.9687 223.888 38.0057 224.111 42.9397ZM235.133 41.8537C245.796 44.8195 255.034 51.5295 261.152 60.7537C263.196 64.0757 261.928 67.6027 258.335 68.5977C254.742 69.5927 248.447 71.3307 244.355 72.4597L237.305 74.4067C236.412 74.708 235.459 74.791 234.528 74.6488C233.596 74.5066 232.712 74.1433 231.95 73.5893C231.187 73.0352 230.569 72.3066 230.146 71.4645C229.723 70.6223 229.508 69.6911 229.519 68.7487L229.193 61.4487C229.001 57.2087 228.713 50.6897 228.547 46.9567C228.381 43.2237 231.343 40.9337 235.133 41.8537V41.8537Z" fill="#C2C2C2"/>
<path d="M168.585 71.5759C173.341 72.8899 181.666 75.1959 187.085 76.6889L196.409 79.2649C201.827 80.7649 206.464 77.3899 206.709 71.7799L207.141 62.1119C207.392 56.5009 207.777 47.8699 207.997 42.9399C208.217 38.0099 204.297 34.9709 199.279 36.1869C199.279 36.1869 188.46 39.3049 179.811 45.5869C171.162 51.8689 164.85 61.1999 164.85 61.1999C162.149 65.5919 163.825 70.2639 168.585 71.5759ZM170.957 60.7579C177.074 51.5333 186.312 44.823 196.975 41.8579C200.765 40.9379 203.729 43.2369 203.564 46.9579C203.399 50.6789 203.107 57.2069 202.918 61.4479L202.589 68.7479C202.6 69.6903 202.385 70.6216 201.962 71.4637C201.539 72.3059 200.92 73.0344 200.158 73.5883C199.395 74.1422 198.511 74.5055 197.579 74.6475C196.648 74.7896 195.695 74.7064 194.802 74.4049L187.754 72.4569C183.663 71.3289 177.376 69.5879 173.775 68.5949C170.174 67.6019 168.912 64.0779 170.957 60.7579V60.7579Z" fill="#C2C2C2"/>
<path d="M178.659 133.235C181.382 129.116 186.146 121.912 189.238 117.219L194.57 109.149C197.67 104.458 195.895 99.0081 190.635 97.0361L181.577 93.6361C176.315 91.6621 168.227 88.6361 163.605 86.8991C158.983 85.1621 154.882 87.9581 154.49 93.0991C154.49 93.0991 154.114 104.355 157.417 114.524C160.72 124.693 167.641 133.576 167.641 133.576C170.977 137.506 175.941 137.355 178.659 133.235ZM169.104 127.635C165.816 123.254 163.211 118.398 161.378 113.235C159.826 107.982 159.08 102.524 159.166 97.047C159.466 93.155 162.566 91.0471 166.056 92.3561C169.546 93.6651 175.656 95.9561 179.638 97.4481L186.483 100.018C187.384 100.298 188.204 100.789 188.874 101.452C189.545 102.114 190.047 102.928 190.339 103.824C190.63 104.721 190.702 105.674 190.548 106.604C190.395 107.534 190.02 108.414 189.456 109.169L185.428 115.269C183.089 118.81 179.491 124.255 177.434 127.369C175.377 130.483 171.631 130.606 169.104 127.634V127.635Z" fill="#C2C2C2"/>
<path d="M222.61 95.4587C222.61 96.7548 222.226 98.0217 221.506 99.0995C220.786 100.177 219.763 101.017 218.566 101.513C217.369 102.01 216.051 102.14 214.78 101.887C213.509 101.635 212.341 101.011 211.424 100.094C210.508 99.1782 209.883 98.0108 209.63 96.7397C209.377 95.4687 209.506 94.1511 210.002 92.9536C210.498 91.7561 211.337 90.7325 212.415 90.0121C213.492 89.2918 214.759 88.9071 216.055 88.9067C217.793 88.9067 219.46 89.5969 220.689 90.8256C221.918 92.0542 222.609 93.7208 222.61 95.4587V95.4587Z" fill="#0e0f11"/>
<path d="M215.877 166.948L134 167.5C134.2 164.942 135.278 163.123 136.763 161.829C138.338 160.45 141.633 158.718 141.633 154.809C141.633 154.809 193.268 163.281 215.877 163.489" fill="#5D5D5D"/>
<path d="M215.877 163.488C204.086 163.017 184.96 160.463 168.741 158.863C171.872 160.948 175.323 162.506 178.957 163.476C184.3 164.943 205.773 165.192 215.877 165.307" fill="#4A4A4A"/>
<path d="M163.801 162.139C163.826 162.147 163.858 162.154 163.884 162.161C163.402 161.921 162.944 161.635 162.518 161.307C162.841 161.72 163.292 162.013 163.801 162.139Z" fill="#5D5D5D"/>
<path d="M188.123 166.831C187.553 166.848 187.001 166.858 186.477 166.858C182.522 166.931 178.587 166.281 174.866 164.938C173.349 164.366 171.769 163.974 170.159 163.77C167.988 163.612 165.863 163.067 163.883 162.161C163.857 162.154 163.825 162.147 163.8 162.139C163.292 162.013 162.84 161.72 162.517 161.307C161.984 160.935 161.548 160.442 161.243 159.867C160.73 158.926 160.007 158.116 159.13 157.498C158.586 157.419 158.05 157.34 157.522 157.26C157.822 157.56 158.522 158.235 159.772 159.309C160.324 159.79 160.757 160.392 161.038 161.067C161.234 161.597 161.553 162.073 161.969 162.454C162.385 162.836 162.887 163.112 163.431 163.26C164.883 163.658 166.362 163.951 167.855 164.137C169.671 164.333 171.46 164.727 173.189 165.313C174.766 166.002 176.411 166.52 178.098 166.856L188.124 166.881L188.123 166.831Z" fill="#767676"/>
<path d="M160.544 158.418C161.218 159.004 161.75 159.736 162.1 160.558C162.218 160.82 162.358 161.071 162.517 161.31C162.944 161.638 163.401 161.924 163.883 162.164C165.249 162.523 166.637 162.794 168.038 162.975C169.963 163.18 171.858 163.606 173.686 164.244C176.374 165.488 181.565 166.732 188.105 166.449L188.123 166.834C188.561 166.82 189.008 166.803 189.477 166.777L189.444 166.187C181.744 166.61 178.191 165.423 175.053 164.378C173.492 163.796 171.87 163.396 170.217 163.186C165.275 162.691 162.417 161.042 161.78 159.629C161.362 158.869 160.801 158.196 160.129 157.648C159.901 157.613 159.802 157.599 159.577 157.566C159.853 157.812 160.171 158.092 160.544 158.418Z" fill="#3F3F3F"/>
<path d="M173.686 164.241C171.858 163.603 169.963 163.177 168.038 162.972C166.637 162.791 165.249 162.52 163.883 162.161C165.862 163.067 167.988 163.612 170.159 163.77C171.768 163.973 173.348 164.365 174.866 164.938C178.587 166.281 182.522 166.931 186.477 166.858C187.001 166.858 187.553 166.848 188.123 166.831L188.105 166.446C181.565 166.729 176.377 165.485 173.686 164.241Z" fill="#3F3F3F"/>
<path d="M160.544 158.418C160.171 158.095 159.853 157.818 159.577 157.566C159.427 157.543 159.277 157.523 159.13 157.501C160.006 158.119 160.729 158.929 161.243 159.87C161.547 160.444 161.984 160.938 162.517 161.31C162.357 161.071 162.218 160.82 162.1 160.558C161.75 159.736 161.218 159.004 160.544 158.418V158.418Z" fill="#3F3F3F"/>
<path d="M152.067 156.446C152.067 156.446 147.845 156.654 147.507 157.563C147.347 157.989 145.021 160.979 145.021 160.979L148.87 161.307L151.062 158.877L154.641 158.637L155.922 156.887L152.067 156.446Z" fill="#4A4A4A"/>
<path d="M155.087 159.403C153.976 159.534 152.873 159.734 151.787 160.003C151.773 160.151 149.949 162.157 149.949 162.157L146.749 162.694L147.865 164.021L149.95 162.694L151.788 161.303L153.646 160.292L155.919 160.229L155.087 159.403Z" fill="#4A4A4A"/>
<path d="M215.873 166.953H298.193C297.993 164.394 296.78 163.163 295.293 161.866C293.716 160.488 290.423 158.757 290.423 154.847C290.423 154.847 238.481 163.287 215.873 163.495" fill="#5D5D5D"/>
<path d="M215.877 163.493C227.706 163.093 246.986 160.693 263.318 158.899C260.187 160.984 256.736 162.542 253.101 163.512C247.758 164.979 225.978 165.198 215.877 165.312" fill="#4A4A4A"/>
<path d="M268.249 162.175C268.224 162.182 268.19 162.19 268.165 162.199C268.648 161.96 269.105 161.673 269.531 161.343C269.21 161.757 268.758 162.05 268.249 162.175V162.175Z" fill="#5D5D5D"/>
<path d="M243.924 166.868C244.494 166.886 245.047 166.896 245.571 166.896C249.526 166.97 253.461 166.318 257.181 164.973C258.7 164.401 260.281 164.01 261.891 163.809C264.061 163.647 266.185 163.102 268.165 162.199C268.19 162.19 268.224 162.182 268.249 162.175C268.758 162.05 269.21 161.757 269.531 161.343C270.064 160.971 270.501 160.477 270.806 159.903C271.32 158.963 272.043 158.153 272.919 157.536L274.528 157.297C274.228 157.597 273.521 158.272 272.278 159.346C271.725 159.827 271.292 160.429 271.011 161.105C270.816 161.635 270.496 162.111 270.078 162.492C269.66 162.874 269.157 163.149 268.611 163.295C267.159 163.695 265.681 163.989 264.187 164.176C262.371 164.37 260.582 164.764 258.853 165.352C257.276 166.04 255.631 166.557 253.944 166.894L243.919 166.919L243.924 166.868Z" fill="#767676"/>
<path d="M271.505 158.452C270.831 159.038 270.299 159.77 269.947 160.591C269.83 160.853 269.691 161.105 269.531 161.343C269.105 161.673 268.648 161.96 268.165 162.199C266.799 162.558 265.411 162.828 264.009 163.006C262.085 163.215 260.191 163.641 258.363 164.276C255.674 165.521 250.483 166.766 243.943 166.482L243.924 166.868C243.487 166.854 243.04 166.836 242.573 166.811L242.604 166.221C250.304 166.643 253.859 165.458 256.996 164.413C258.556 163.829 260.179 163.429 261.831 163.219C266.774 162.725 269.631 161.075 270.268 159.662C270.712 158.896 271.296 158.22 271.989 157.67C272.219 157.638 272.247 157.631 272.472 157.601C272.195 157.85 271.877 158.13 271.505 158.452Z" fill="#3F3F3F"/>
<path d="M258.363 164.276C260.191 163.641 262.085 163.215 264.009 163.006C265.41 162.828 266.799 162.558 268.165 162.199C266.185 163.102 264.061 163.647 261.891 163.809C260.281 164.011 258.7 164.402 257.181 164.973C253.461 166.319 249.526 166.97 245.571 166.896C245.047 166.896 244.494 166.886 243.924 166.868L243.943 166.482C250.483 166.766 255.677 165.518 258.363 164.276Z" fill="#3F3F3F"/>
<path d="M271.505 158.452C271.876 158.13 272.195 157.852 272.472 157.601C272.622 157.578 272.772 157.557 272.919 157.536C272.043 158.153 271.321 158.963 270.806 159.903C270.502 160.478 270.065 160.971 269.531 161.343C269.691 161.105 269.83 160.853 269.947 160.591C270.299 159.77 270.831 159.038 271.505 158.452V158.452Z" fill="#3F3F3F"/>
<path d="M279.977 156.483C279.977 156.483 284.2 156.688 284.542 157.601C284.7 158.026 287.024 161.015 287.024 161.015L283.175 161.343L280.983 158.913L277.404 158.672L276.124 156.924L279.977 156.483Z" fill="#4A4A4A"/>
<path d="M276.961 159.439C278.073 159.571 279.175 159.773 280.261 160.045C280.276 160.192 282.101 162.199 282.101 162.199L285.301 162.736L284.184 164.061L282.102 162.736L280.262 161.343L278.406 160.333L276.132 160.271L276.961 159.439Z" fill="#4A4A4A"/>
<path d="M201.524 163.376C201.4 163.538 201.103 163.754 200.965 163.95C200.847 164.104 200.752 164.275 200.683 164.456C200.835 164.347 200.98 164.228 201.118 164.1C201.218 164.025 201.318 163.944 201.418 163.859C201.565 163.774 201.69 163.656 201.785 163.514C201.822 163.427 201.84 163.332 201.835 163.237C201.83 163.141 201.803 163.049 201.757 162.965C201.688 162.848 201.717 162.802 201.757 162.696C201.85 162.544 201.962 162.404 202.091 162.279C201.89 162.317 201.709 162.423 201.579 162.579C201.535 162.647 201.498 162.718 201.47 162.793C201.463 162.883 201.475 162.973 201.506 163.058C201.531 163.107 201.546 163.16 201.549 163.215C201.553 163.27 201.544 163.325 201.524 163.376V163.376Z" fill="#5D5D5D"/>
<path d="M204.303 163.649C204.173 163.798 204.029 163.934 203.874 164.055C203.812 164.106 203.764 164.17 203.733 164.243C203.702 164.316 203.688 164.396 203.694 164.475C203.778 164.37 203.884 164.285 204.005 164.225C204.218 164.133 204.405 163.99 204.55 163.809C204.66 163.589 204.684 163.335 204.617 163.098C204.574 162.922 204.585 162.798 204.562 162.684C204.467 162.806 204.412 162.953 204.404 163.107C204.407 163.293 204.372 163.477 204.303 163.649V163.649Z" fill="#5D5D5D"/>
<path d="M207.842 163.879C207.626 164.158 207.328 164.513 207.385 164.715C207.639 164.507 207.875 164.28 208.093 164.035C208.169 163.876 208.208 163.702 208.207 163.525C208.206 163.349 208.165 163.175 208.086 163.017C207.987 163.172 207.997 163.591 207.842 163.879Z" fill="#5D5D5D"/>
<path d="M211.177 163.911C211.15 164.082 211.115 164.251 211.07 164.418C211.021 164.557 211.001 164.741 211.062 164.807C211.114 164.698 211.182 164.597 211.262 164.507C211.366 164.342 211.434 164.158 211.462 163.965C211.556 163.656 211.53 163.322 211.391 163.03C211.304 163.32 211.233 163.614 211.177 163.911V163.911Z" fill="#5D5D5D"/>
<path d="M213.808 164C213.752 164.168 213.65 164.366 213.594 164.524C213.557 164.658 213.549 164.798 213.571 164.936C213.652 164.836 213.724 164.729 213.785 164.616C213.914 164.461 214.015 164.286 214.086 164.098C214.183 163.762 214.15 163.402 213.994 163.09C213.895 163.254 213.927 163.661 213.808 164Z" fill="#5D5D5D"/>
<path d="M216.789 164.158C216.686 164.269 216.595 164.392 216.519 164.524C216.429 164.665 216.492 164.853 216.578 164.862C216.546 164.679 216.763 164.646 217.036 164.319C217.22 163.883 217.051 163.661 217.149 163.532C216.92 163.51 216.877 163.987 216.789 164.158Z" fill="#5D5D5D"/>
<path d="M219.439 164.055C219.039 164.389 218.769 164.741 218.554 164.696C218.617 164.816 218.854 164.796 219.04 164.696C219.251 164.582 219.449 164.443 219.628 164.282C219.668 164.251 219.704 164.219 219.741 164.19L219.726 164.199L220.019 164.011C220.089 163.929 220.152 163.842 220.209 163.75C220.263 163.622 220.303 163.488 220.327 163.35C220.127 163.476 220.027 163.803 219.596 163.939H219.591L219.584 163.946C219.533 163.98 219.485 164.016 219.439 164.055V164.055Z" fill="#5D5D5D"/>
<path d="M223.065 163.792C222.706 164.211 222.683 164.563 222.522 164.692C222.765 164.729 223.027 164.278 223.267 164.004C223.399 163.883 223.649 163.734 223.703 163.514C223.744 163.367 223.737 163.21 223.684 163.067C223.621 163.142 223.599 163.309 223.507 163.424C223.437 163.557 223.272 163.618 223.065 163.792Z" fill="#5D5D5D"/>
<path d="M227.291 163.446C227.198 163.68 227.139 163.926 227.116 164.176C227.12 164.34 227.146 164.502 227.193 164.659C227.257 164.514 227.302 164.361 227.327 164.204C227.374 164.01 227.485 163.819 227.553 163.578C227.689 163.191 227.736 162.779 227.692 162.371C227.521 162.524 227.46 163.037 227.291 163.446Z" fill="#5D5D5D"/>
<path d="M231.156 163.208C231.034 163.553 230.943 163.909 230.886 164.27C231.155 163.996 231.347 163.655 231.441 163.283C231.506 163.094 231.52 162.891 231.481 162.695C231.441 162.498 231.35 162.316 231.217 162.167C231.261 162.515 231.24 162.868 231.156 163.208V163.208Z" fill="#5D5D5D"/>
<path d="M175.524 157.135C176.765 156.094 178.092 155.16 179.492 154.346C177.971 154.961 176.564 155.829 175.33 156.911C174.515 157.497 173.861 158.279 173.43 159.186C173.29 159.594 173.23 159.971 173.114 160.269C173.027 160.522 172.885 160.752 172.698 160.944C172.926 160.785 173.108 160.568 173.225 160.316C173.378 160.016 173.47 159.639 173.631 159.26C173.894 158.473 174.739 157.879 175.524 157.135Z" fill="#5D5D5D"/>
<path d="M179.27 158.77C179.758 158.055 180.349 157.415 181.022 156.87C181.596 156.38 182.072 155.997 182.347 155.728C182.019 155.928 181.503 156.25 180.89 156.705C180.157 157.225 179.523 157.873 179.02 158.618C178.469 159.49 178.408 160.448 178.046 161.077C177.743 161.56 177.304 161.942 176.785 162.177C177.372 162.035 177.886 161.682 178.229 161.185C178.668 160.509 178.761 159.557 179.27 158.77Z" fill="#5D5D5D"/>
<path d="M183.693 159.997C184.379 159.139 185.114 158.321 185.893 157.547C184.947 158.158 184.119 158.933 183.445 159.835C183.241 160.131 183.062 160.443 182.909 160.768C182.767 161.04 182.609 161.303 182.437 161.557C182.169 161.9 181.858 162.207 181.512 162.47C181.929 162.293 182.302 162.026 182.605 161.689C182.807 161.442 182.989 161.179 183.149 160.902C183.31 160.588 183.491 160.286 183.693 159.997Z" fill="#5D5D5D"/>
<path d="M187.092 161.502C187.325 160.95 187.596 160.416 187.905 159.902C188.172 159.465 188.464 159.163 188.6 158.927C188.279 159.179 187.987 159.466 187.729 159.783C187.363 160.279 187.058 160.818 186.822 161.388C186.646 161.955 186.37 162.486 186.007 162.955C185.721 163.237 185.453 163.538 185.207 163.855C185.424 163.696 185.755 163.455 186.164 163.108C186.592 162.651 186.91 162.102 187.092 161.502V161.502Z" fill="#5D5D5D"/>
<path d="M191.386 161.852C191.706 161.098 192.186 160.49 192.291 160.152C191.79 160.592 191.389 161.133 191.112 161.74C191.029 161.946 190.976 162.163 190.955 162.384C190.955 162.578 190.955 162.759 190.96 162.93C190.922 163.17 190.8 163.388 190.616 163.547C190.751 163.506 190.874 163.43 190.971 163.327C191.068 163.224 191.136 163.097 191.169 162.96C191.182 162.581 191.255 162.207 191.386 161.852V161.852Z" fill="#5D5D5D"/>
<path d="M195.139 162.233C195.419 161.848 195.654 161.432 195.839 160.993C195.467 161.3 195.147 161.666 194.892 162.075C194.74 162.327 194.619 162.595 194.53 162.875C194.485 163.065 194.462 163.259 194.46 163.454C194.613 163.226 194.807 162.758 195.139 162.233Z" fill="#5D5D5D"/>
<path d="M259.569 155.465C259.257 153.717 258.818 151.994 258.255 150.31C258.365 151.239 258.889 153.185 259.279 155.521C259.779 157.821 260.091 159.873 259.536 160.698C259.934 160.093 260.105 159.367 260.019 158.648C259.958 157.576 259.807 156.512 259.569 155.465V155.465Z" fill="#5D5D5D"/>
<path d="M256.464 157.403C256.339 156.44 256.158 155.485 255.92 154.543C255.731 153.734 255.62 153.081 255.499 152.674C255.538 153.314 255.609 153.951 255.712 154.584C255.866 155.403 256.032 156.384 256.17 157.429C256.177 157.958 256.187 158.465 256.194 158.946C256.165 159.429 256.136 159.883 256.112 160.297C256.12 160.93 255.977 161.557 255.696 162.125C256.081 161.601 256.299 160.974 256.323 160.325C256.385 159.913 256.428 159.452 256.467 158.971C256.477 158.477 256.467 157.949 256.464 157.403Z" fill="#5D5D5D"/>
<path d="M253.223 158.703C253.113 156.617 253.012 154.866 252.89 154.052C252.824 155.605 252.837 157.16 252.927 158.711C252.94 159.222 253.009 159.736 252.981 160.183C252.933 160.613 252.855 161.039 252.749 161.458C252.551 162.059 252.548 162.707 252.743 163.308C252.661 162.7 252.734 162.08 252.957 161.508C253.094 161.084 253.194 160.649 253.257 160.208C253.275 159.706 253.263 159.204 253.223 158.703V158.703Z" fill="#5D5D5D"/>
<path d="M249.077 159.983C249 158.296 249.077 156.883 249 156.218C248.806 157.463 248.733 158.724 248.781 159.983C248.944 161.653 248.343 163.01 248.457 163.7C248.537 163.376 248.645 162.877 248.844 162.256C249.058 161.519 249.137 160.749 249.077 159.983Z" fill="#5D5D5D"/>
<path d="M245.383 161.509C245.473 160.516 245.431 159.515 245.26 158.532C245.16 159.04 245.229 160.194 245.091 161.466C244.991 161.766 244.997 162.148 244.837 162.345C244.758 162.458 244.644 162.559 244.547 162.696C244.502 162.768 244.472 162.848 244.459 162.931C244.446 163.014 244.451 163.1 244.472 163.181V163.172C244.59 163.526 244.903 163.497 245.016 163.591C245.158 163.668 245.008 163.849 244.965 163.946C245.012 163.899 245.065 163.846 245.114 163.792C245.145 163.75 245.159 163.697 245.155 163.645C245.15 163.593 245.127 163.544 245.089 163.507C244.932 163.371 244.689 163.3 244.673 163.146V163.137C244.623 162.909 244.81 162.78 245.052 162.51C245.163 162.371 245.235 162.205 245.259 162.028C245.3 161.859 245.341 161.684 245.383 161.509Z" fill="#5D5D5D"/>
<path d="M242.105 162.103C242.212 161.607 242.246 161.097 242.205 160.591C242.18 160.165 242.205 159.835 242.205 159.615C242.077 159.923 242.004 160.251 241.988 160.584C241.973 161.066 241.917 161.547 241.821 162.019C241.712 162.534 241.261 162.746 240.921 163.053C240.787 163.166 240.688 163.315 240.636 163.482C240.584 163.649 240.581 163.828 240.628 163.996C240.635 163.842 240.678 163.692 240.752 163.556C240.827 163.421 240.932 163.305 241.059 163.217C241.363 163.004 241.968 162.727 242.105 162.103Z" fill="#5D5D5D"/>
<path d="M238.025 162.436C238.227 162.089 238.389 161.72 238.508 161.336C238.565 161.078 238.601 160.816 238.615 160.551C238.495 160.782 238.392 161.021 238.306 161.266C238.199 161.574 237.955 161.901 237.775 162.281C237.524 162.626 237.319 162.967 237.116 163.228C236.944 163.424 236.787 163.632 236.646 163.851C236.867 163.708 237.077 163.548 237.275 163.373C237.552 163.083 237.803 162.77 238.025 162.436Z" fill="#5D5D5D"/>
<path d="M235.177 162.682C235.076 162.306 235.006 161.922 234.968 161.534C234.873 161.673 234.818 161.836 234.811 162.004C234.805 162.247 234.831 162.489 234.887 162.725C235.02 163.213 234.541 163.344 234.377 163.503C234.546 163.513 234.714 163.483 234.869 163.414C234.994 163.343 235.092 163.233 235.147 163.1C235.203 162.968 235.213 162.821 235.177 162.682Z" fill="#5D5D5D"/>
</g>
</g>
<defs>
<clipPath id="clip0_374_27948">
<rect width="408" height="180" fill="white"/>
</clipPath>
<clipPath id="clip1_374_27948">
<rect width="269" height="206" fill="white" transform="translate(82 -39)"/>
</clipPath>
</defs>
</svg>
