<svg width="24" height="24" viewBox="0 0 24 24" fill="none" xmlns="http://www.w3.org/2000/svg">
<path d="M16.19 2H7.82001C4.18001 2 2.01001 4.17 2.01001 7.81V16.18C2.01001 19.82 4.18001 21.99 7.82001 21.99H16.19C19.83 21.99 22 19.82 22 16.18V7.81C22 4.17 19.83 2 16.19 2Z" fill="white"/>
<path d="M18.6414 7.19749C18.1179 7.52106 17.5451 7.74899 16.9479 7.87142C16.5451 7.42754 16.0133 7.134 15.4345 7.03604C14.8557 6.93808 14.2621 7.04114 13.7451 7.32934C13.2281 7.61754 12.8164 8.07487 12.5735 8.63085C12.3307 9.18683 12.2701 9.81058 12.4012 10.406C11.3409 10.3505 10.3036 10.0634 9.35672 9.5633C8.40982 9.0632 7.57447 8.36126 6.90487 7.50306C6.56434 8.11491 6.46014 8.83884 6.61342 9.52782C6.76671 10.2168 7.166 10.8192 7.73018 11.2126C7.30678 11.1984 6.89276 11.079 6.52266 10.8643V10.8993C6.52278 11.5408 6.73591 12.1626 7.1259 12.6591C7.5159 13.1556 8.05875 13.4963 8.6624 13.6235C8.26966 13.7348 7.85771 13.7512 7.45798 13.6714C7.62872 14.2232 7.96057 14.7056 8.40722 15.0515C8.85388 15.3974 9.39304 15.5893 9.94947 15.6006C9.00472 16.373 7.838 16.7919 6.63701 16.7898C6.42414 16.7902 6.21143 16.7774 6 16.7517C7.21957 17.568 8.63901 18.0013 10.0887 17.9998C11.0871 18.007 12.077 17.8074 13.0008 17.4126C13.9246 17.0178 14.7638 16.4358 15.4699 15.7003C16.1759 14.9648 16.7345 14.0905 17.1134 13.1282C17.4923 12.1658 17.6838 11.1347 17.6769 10.0946C17.6769 9.97414 17.6742 9.85438 17.6688 9.73526C18.1913 9.34146 18.6421 8.85366 19 8.29482C18.5134 8.5195 17.9972 8.66702 17.4687 8.73245C18.0254 8.38598 18.4423 7.84043 18.6414 7.19749V7.19749Z" fill="#0E0F11"/>
</svg>
